<svg width="141" height="108" xmlns="http://www.w3.org/2000/svg" xmlns:xlink="http://www.w3.org/1999/xlink" xmlns:svgjs="http://svgjs.com/svgjs" viewBox="454 2765 141 108"><svg width="141" height="108" xmlns="http://www.w3.org/2000/svg" xmlns:xlink="http://www.w3.org/1999/xlink" xmlns:svgjs="http://svgjs.com/svgjs" viewBox="454 2765 141 108" x="454" y="2765"><svg width="141" height="21" xmlns="http://www.w3.org/2000/svg" xmlns:xlink="http://www.w3.org/1999/xlink" xmlns:svgjs="http://svgjs.com/svgjs" viewBox="454 2852 141 21" x="454" y="2852"><svg width="141" height="21" xmlns="http://www.w3.org/2000/svg" xmlns:xlink="http://www.w3.org/1999/xlink" xmlns:svgjs="http://svgjs.com/svgjs" viewBox="454 2852 141 21" x="454" y="2852"><svg width="22" height="20" xmlns="http://www.w3.org/2000/svg" xmlns:xlink="http://www.w3.org/1999/xlink" xmlns:svgjs="http://svgjs.com/svgjs" viewBox="0.208 0 21.584 20" fill="#fff" x="454" y="2853"><svg xmlns="http://www.w3.org/2000/svg" xmlns:xlink="http://www.w3.org/1999/xlink" width="22" height="20" viewBox="1 0.661 20.741 19.219"><path paint-order="stroke fill markers" fill-rule="evenodd" d="M8.327 19.88c-1.41 0-2.584-.117-3.523-.352-.94-.235-1.69-.61-2.254-1.127-.564-.517-.963-1.193-1.198-2.03C1.117 15.537 1 14.508 1 13.287v-6.03c0-1.203.117-2.227.352-3.072.235-.846.634-1.526 1.198-2.043.563-.517 1.315-.893 2.254-1.128C5.744.78 6.918.661 8.327.661h4.734v3.635H8.327c-.62 0-1.127.052-1.522.155-.395.104-.71.268-.944.494-.235.225-.394.526-.48.901-.084.376-.126.846-.126 1.41v1.296h16.373v3.41H5.255v1.352c0 .583.042 1.062.127 1.437.085.376.24.676.465.902.225.226.54.38.944.465.403.085.916.127 1.536.127H21.74v3.635H8.327z"/></svg></svg><svg width="5" height="21" xmlns="http://www.w3.org/2000/svg" xmlns:xlink="http://www.w3.org/1999/xlink" xmlns:svgjs="http://svgjs.com/svgjs" viewBox="0.274 0 4.452 21" fill="#fff" x="478" y="2852"><svg xmlns="http://www.w3.org/2000/svg" xmlns:xlink="http://www.w3.org/1999/xlink" width="5" height="21" viewBox="0.502 0.675 4.283 20.205"><path paint-order="stroke fill markers" fill-rule="evenodd" d="M.502 20.88V.675h4.284V20.88H.502z"/></svg></svg><svg width="21" height="16" xmlns="http://www.w3.org/2000/svg" xmlns:xlink="http://www.w3.org/1999/xlink" xmlns:svgjs="http://svgjs.com/svgjs" viewBox="0.079 0 20.841 16" fill="#fff" x="485" y="2857"><svg xmlns="http://www.w3.org/2000/svg" xmlns:xlink="http://www.w3.org/1999/xlink" width="21" height="16" viewBox="0.97 0.606 19.895 15.274"><path paint-order="stroke fill markers" fill-rule="evenodd" d="M5.169 9.793v.705c0 .47.037.845.112 1.127.075.282.212.503.41.662.196.16.46.268.788.324.329.057.737.085 1.226.085h4.96v3.184h-4.96c-2.424 0-4.152-.46-5.185-1.38-1.033-.92-1.55-2.396-1.55-4.425V6.553c0-1.11.108-2.044.324-2.804.216-.761.592-1.372 1.127-1.832.536-.46 1.245-.794 2.128-1 .883-.207 2-.31 3.353-.31h7.384c1.089 0 1.996.103 2.719.31.723.206 1.296.492 1.719.859.423.366.719.808.888 1.324.169.517.253 1.077.253 1.677v5.016H5.17zm11.498-4.678c0-.507-.127-.845-.381-1.014-.254-.17-.7-.254-1.339-.254H7.96c-.526 0-.968.024-1.325.07-.357.048-.644.156-.859.325-.217.169-.372.413-.465.733-.095.319-.141.75-.141 1.296v.817h11.498V5.115z"/></svg></svg><svg width="20" height="16" xmlns="http://www.w3.org/2000/svg" xmlns:xlink="http://www.w3.org/1999/xlink" xmlns:svgjs="http://svgjs.com/svgjs" viewBox="0.344 0 19.312 16" fill="#fff" x="508" y="2857"><svg xmlns="http://www.w3.org/2000/svg" xmlns:xlink="http://www.w3.org/1999/xlink" width="20" height="16" viewBox="0.768 0.634 18.402 15.246"><path paint-order="stroke fill markers" fill-rule="evenodd" d="M8.094 15.88c-1.409 0-2.583-.117-3.522-.351-.94-.235-1.69-.61-2.254-1.126-.564-.515-.963-1.19-1.198-2.025-.235-.834-.352-1.86-.352-3.08V7.245c0-1.218.117-2.25.352-3.093.235-.844.634-1.524 1.198-2.04.563-.515 1.314-.89 2.254-1.125C5.51.752 6.685.634 8.094.634h11.048v3.58H8.236c-.658 0-1.198.047-1.62.14-.424.094-.758.258-1.001.491-.245.234-.414.557-.507.97-.095.411-.142.926-.142 1.543v1.798c0 .6.047 1.1.142 1.503.093.402.262.725.507.968.243.244.577.417 1 .52.423.103.963.154 1.62.154H19.17v3.58H8.094z"/></svg></svg><svg width="13" height="20" xmlns="http://www.w3.org/2000/svg" xmlns:xlink="http://www.w3.org/1999/xlink" xmlns:svgjs="http://svgjs.com/svgjs" viewBox="0.759 0 11.482 20" fill="#fff" x="528" y="2853"><svg xmlns="http://www.w3.org/2000/svg" xmlns:xlink="http://www.w3.org/1999/xlink" width="13" height="20" viewBox="0.945 0.295 11.243 19.585"><path paint-order="stroke fill markers" fill-rule="evenodd" d="M3.087 19.88V8.016H.945v-3.41h2.142V.295H7.37v4.311h4.819v3.41h-4.82V19.88H3.088z"/></svg></svg><svg width="11" height="16" xmlns="http://www.w3.org/2000/svg" xmlns:xlink="http://www.w3.org/1999/xlink" xmlns:svgjs="http://svgjs.com/svgjs" viewBox="0.319 0 10.362 16" fill="#fff" x="542" y="2857"><svg xmlns="http://www.w3.org/2000/svg" xmlns:xlink="http://www.w3.org/1999/xlink" width="11" height="16" viewBox="0.218 0.606 9.892 15.274"><path paint-order="stroke fill markers" fill-rule="evenodd" d="M.218 15.88V7.031c0-1.145.131-2.122.395-2.93.262-.808.68-1.47 1.254-1.987.573-.517 1.31-.897 2.212-1.142.902-.243 2-.366 3.296-.366h2.734v3.41H7.49c-.583 0-1.072.047-1.466.141-.395.095-.71.254-.944.48-.235.225-.404.535-.507.93-.103.394-.155.892-.155 1.493v8.82h-4.2z"/></svg></svg><svg width="20" height="16" xmlns="http://www.w3.org/2000/svg" xmlns:xlink="http://www.w3.org/1999/xlink" xmlns:svgjs="http://svgjs.com/svgjs" viewBox="0 0.293 20 15.414" fill="#fff" x="554" y="2857"><svg xmlns="http://www.w3.org/2000/svg" xmlns:xlink="http://www.w3.org/1999/xlink" width="20" height="16" viewBox="0.053 0.634 19.783 15.246"><path paint-order="stroke fill markers" fill-rule="evenodd" d="M7.38 15.88c-1.409 0-2.583-.117-3.522-.351-.94-.235-1.691-.61-2.255-1.126-.563-.515-.962-1.19-1.198-2.025-.235-.834-.352-1.86-.352-3.08V7.245c0-1.218.117-2.25.352-3.093.236-.844.635-1.524 1.198-2.04.564-.515 1.315-.89 2.255-1.125C4.797.752 5.97.634 7.38.634h5.101c1.428 0 2.611.118 3.55.352.94.235 1.692.615 2.255 1.14.564.524.962 1.209 1.198 2.053.234.844.352 1.875.352 3.094v2.026c0 1.218-.118 2.245-.352 3.08-.236.834-.634 1.509-1.198 2.024-.563.516-1.315.891-2.254 1.126-.94.234-2.123.351-3.55.351H7.38zm8.257-8.522c0-.636-.052-1.16-.155-1.572-.103-.412-.291-.734-.563-.969-.273-.234-.653-.393-1.141-.478-.49-.083-1.11-.126-1.86-.126H7.943c-.751 0-1.367.043-1.846.126-.48.085-.855.244-1.127.478-.273.235-.46.557-.564.97-.103.411-.155.935-.155 1.571v1.798c0 .637.052 1.157.155 1.559.103.403.291.72.564.954.272.234.648.398 1.127.492.48.094 1.095.14 1.846.14h3.973c.751 0 1.372-.046 1.86-.14.489-.094.87-.258 1.142-.492.272-.233.46-.551.563-.954.103-.402.155-.922.155-1.56V7.359z"/></svg></svg><svg width="19" height="16" xmlns="http://www.w3.org/2000/svg" xmlns:xlink="http://www.w3.org/1999/xlink" xmlns:svgjs="http://svgjs.com/svgjs" viewBox="0 0.078 19 15.843" fill="#fff" x="576" y="2857"><svg xmlns="http://www.w3.org/2000/svg" xmlns:xlink="http://www.w3.org/1999/xlink" width="19" height="16" viewBox="0.683 0.606 18.317 15.274"><path paint-order="stroke fill markers" fill-rule="evenodd" d="M19 11.822c0 .752-.066 1.386-.198 1.903-.132.517-.39.935-.776 1.254-.385.32-.912.55-1.58.69-.668.141-1.538.211-2.61.211H.682v-3.297h12.596c.564 0 .959-.094 1.183-.282.227-.187.34-.544.34-1.07v-.508c0-.563-.11-.915-.325-1.057-.216-.14-.578-.211-1.085-.211H4.825c-.865 0-1.564-.084-2.1-.254-.535-.169-.953-.422-1.253-.76a2.655 2.655 0 0 1-.606-1.255A8.792 8.792 0 0 1 .71 5.425V4.27c0-.658.07-1.221.21-1.69.142-.47.372-.85.692-1.142.319-.29.75-.503 1.296-.634.545-.131 1.23-.198 2.057-.198h5.805v3.185h-4.79c-.414 0-.71.075-.888.225-.179.15-.268.423-.268.817v.705c0 .432.085.723.254.873.17.151.442.226.82.226h8.3c.979 0 1.78.08 2.401.24.621.16 1.11.413 1.468.76.358.348.602.8.734 1.353.132.555.198 1.236.198 2.043v.79z"/></svg></svg></svg></svg><svg width="82" height="81" xmlns="http://www.w3.org/2000/svg" xmlns:xlink="http://www.w3.org/1999/xlink" xmlns:svgjs="http://svgjs.com/svgjs" viewBox="0.502 0 80.995 81" fill="#fff" x="484" y="2765"><svg xmlns="http://www.w3.org/2000/svg" width="82" height="81" viewBox="0.62 0 80.76 80.764"><path paint-order="stroke fill markers" fill-rule="evenodd" d="M80.223 30.766L74.51 33.69a34.148 34.148 0 0 1-2.855 21.757C66.484 65.916 56.133 73.33 44.042 74.402l.012-6.271a27.775 27.775 0 0 0 6.214-1.41v.023a28.043 28.043 0 0 0 12.814-9.252 28.012 28.012 0 0 0 3.245-5.297 27.615 27.615 0 0 0 1.81-5.123l-18.452.01c-4.889 6.504-13.94 6.066-18.39.154-2.61-3.468-3.019-8.05-1.07-11.957 4.821-9.659 18.787-7.78 21.3 2.349h-5.97c-2.842-4.663-9.942-2.618-9.942 2.751 0 5.377 7.11 7.407 9.944 2.751h11.584c1.602-11.075-6.88-19.682-16.605-19.682-15.658 0-22.55 18.64-11.941 29.025a16.892 16.892 0 0 0 23.56.11h6.7c-11.96 17.45-39.489 9.039-39.489-12.212 0-11.948 9.685-21.633 21.634-21.633 12.394 0 22.353 10.427 21.588 22.963h6.328a27.916 27.916 0 0 0-1.77-11.22l11.107-5.683C67.094-1.79 32.58-8.458 12.34 11.956l5.474 3.342C33.511.774 58.417 4.086 69.865 22.111l-5.571 2.852a28.15 28.15 0 0 0-4.103-4.88l.013-.006c-11.965-11.334-31.102-9.931-41.287 3.172L8.27 16.747c-8.462 11.68-9.803 26.618-4.524 39.197a40.338 40.338 0 0 0 2.84 5.524c5.54 9.003 14.483 15.66 25.02 18.178l.013-6.42c-8.184-2.34-15.075-7.647-19.486-14.596-6.549-10.319-6.892-23.005-1.79-33.338l5.346 3.265a27.751 27.751 0 0 0-2.018 6.045l-.024-.015a27.986 27.986 0 0 0 1.207 15.673c3.673 9.68 12.513 16.702 22.986 17.886-.012 7.654-.007 4.818-.023 12.476 13.274 1.152 27.278-4.706 35.914-16.63a40.27 40.27 0 0 0 3.242-5.297c4.442-8.678 5.527-18.628 3.25-27.929z"/></svg></svg></svg></svg>