<svg width="141" height="108" xmlns="http://www.w3.org/2000/svg" xmlns:xlink="http://www.w3.org/1999/xlink" xmlns:svgjs="http://svgjs.com/svgjs" viewBox="1324 2765 141 108"><svg width="141" height="108" xmlns="http://www.w3.org/2000/svg" xmlns:xlink="http://www.w3.org/1999/xlink" xmlns:svgjs="http://svgjs.com/svgjs" viewBox="1324 2765 141 108" x="1324" y="2765"><svg width="141" height="108" xmlns="http://www.w3.org/2000/svg" xmlns:xlink="http://www.w3.org/1999/xlink" xmlns:svgjs="http://svgjs.com/svgjs" viewBox="1324 2765 141 108" x="1324" y="2765"><svg width="134" height="101" xmlns="http://www.w3.org/2000/svg" xmlns:xlink="http://www.w3.org/1999/xlink" xmlns:svgjs="http://svgjs.com/svgjs" viewBox="0.433 0 133.134 101" fill="#9e9e9e" x="1324" y="2765"><svg xmlns="http://www.w3.org/2000/svg" xmlns:xlink="http://www.w3.org/1999/xlink" width="134" height="101" viewBox="1 0 132.823 100.764"><path paint-order="stroke fill markers" fill-rule="evenodd" d="M125.644 36.838L46.348 95.024c-.166.124-.332.243-.503.363-9.912 7.007-20.239 6.763-25.581 1.592a10.485 10.485 0 0 1-1.084-1.219c-.006 0-.006 0-.01-.005-2.117-2.718-3.082-6.437-2.387-10.95L17.992 77l-7.78-1.934 8.381-1.92 13.2-3.018c.753 2.713 3.658 4.17 7.397 3.325 4.69-1.064 8.76-5.301 9.067-9.368.295-3.978-3.133-6.291-7.64-5.238-3.584.84-6.852 3.568-8.273 6.66l-13.035 3.008 2.033-13.076 31.34-7.417 10.466 6.561c-.596 1.079-.96 2.225-1.006 3.372-.14 3.988 3.584 6.416 8.35 5.326 4.783-1.089 8.631-5.264 8.58-9.242-.047-3.885-3.818-6.095-8.413-5.021a11.908 11.908 0 0 0-3.714 1.592l-7.06-4.29 28.626-6.773c1.224 2.38 4.461 3.579 8.196 2.697 4.688-1.095 8.231-4.985 7.889-8.61-.322-3.543-4.248-5.483-8.75-4.399-3.584.861-6.536 3.398-7.506 6.188L21.986 51.247 1 56.252l21.675-9.43.581-3.76 45.561-11.027 5.815-5.887c1.053.145 2.235.094 3.49-.212 4.331-1.053 7.755-4.57 7.64-7.78-.114-3.15-3.594-4.809-7.764-3.766-4.15 1.032-7.542 4.383-7.588 7.547-.01.933.28 1.748.783 2.406l-4.336 4.341-42.999 10.478L25.44 28.99l19.274-4.788c.763 2.039 3.403 3.009 6.701 2.2 4.145-1.022 7.646-4.43 7.801-7.547.15-3.06-2.977-4.679-6.97-3.673-3.19.799-6.022 3.04-7.19 5.467l-19.06 4.762-5.732 1.431 6.146-4.092.871-5.628C28.754 7.647 42.93-1.45 53.361.193l68.237 10.758c1.157.182 2.235.446 3.242.788 11.09 3.75 12.541 16.49.804 25.1z"/></svg></svg><svg width="116" height="99" xmlns="http://www.w3.org/2000/svg" xmlns:xlink="http://www.w3.org/1999/xlink" xmlns:svgjs="http://svgjs.com/svgjs" viewBox="1341 2766 116 99" x="1341" y="2766"><svg width="116" height="99" xmlns="http://www.w3.org/2000/svg" xmlns:xlink="http://www.w3.org/1999/xlink" xmlns:svgjs="http://svgjs.com/svgjs" viewBox="0 0.216 116 98.567" fill="#fff" x="1341" y="2766"><svg xmlns="http://www.w3.org/2000/svg" xmlns:xlink="http://www.w3.org/1999/xlink" width="116" height="99" viewBox="0.547 0.703 114.58 97.361"><path paint-order="stroke fill markers" fill-rule="evenodd" d="M13.597 98.064c-4.11 0-7.587-1.417-9.791-3.99C1.649 91.558.84 88.098 1.465 84.07l1.45-9.351-2.368-.588L13.79 71.1c1.199 2.065 3.503 3.293 6.345 3.293.784 0 1.601-.095 2.429-.282 5.368-1.216 10.028-6.107 10.388-10.902.15-2.002-.428-3.768-1.67-5.107-1.324-1.427-3.298-2.213-5.556-2.213-.807 0-1.645.1-2.492.297-3.761.876-7.225 3.518-9.049 6.84l-9.808 2.264 1.468-9.46 29.539-6.99 8.595 5.391a8.614 8.614 0 0 0-.536 2.658c-.07 1.96.573 3.704 1.864 5.042 1.439 1.493 3.558 2.315 5.964 2.314.844 0 1.718-.1 2.596-.301 5.524-1.26 9.969-6.161 9.908-10.928-.052-4.107-3.28-6.975-7.85-6.975-.865 0-1.758.107-2.653.316a13.356 13.356 0 0 0-3.316 1.27l-2.644-1.609 23.442-5.545c1.436 1.75 3.792 2.763 6.558 2.763.91 0 1.848-.112 2.787-.332 5.484-1.287 9.609-5.966 9.195-10.43-.34-3.676-3.629-6.243-7.998-6.243-.932 0-1.891.116-2.848.346-3.74.9-6.913 3.357-8.349 6.394L2.363 49.122l4.849-2.108.553-3.566 44.924-10.873 5.592-5.66c.167.009.334.013.502.013.894 0 1.818-.115 2.745-.341 5.157-1.257 9.082-5.427 8.935-9.494-.12-3.368-3.02-5.72-7.05-5.72-.917 0-1.867.122-2.824.36-4.923 1.225-8.823 5.257-8.878 9.179-.01.746.12 1.464.379 2.13l-3.097 3.101-40.059 9.765 1.014-6.538 16.94-4.205c1.119 1.415 2.997 2.225 5.29 2.225.85 0 1.74-.113 2.645-.336 4.903-1.209 8.897-5.213 9.093-9.116.076-1.497-.403-2.834-1.383-3.865-1.16-1.22-2.938-1.892-5.006-1.892-.868 0-1.775.117-2.697.349-3.321.835-6.338 3.011-7.915 5.655L11.07 22.143l.892-5.757C13.143 8.764 24.371.703 33.804.703c.79 0 1.561.058 2.29.173L104.33 11.63c5.545.874 9.476 3.95 10.514 8.227 1.204 4.952-1.49 10.413-7.207 14.607L28.341 92.65c-4.758 3.49-9.995 5.415-14.743 5.415h-.001z"/></svg></svg><svg width="116" height="99" xmlns="http://www.w3.org/2000/svg" xmlns:xlink="http://www.w3.org/1999/xlink" xmlns:svgjs="http://svgjs.com/svgjs" viewBox="0 0.216 116 98.567" fill="#fff" x="1341" y="2766"><svg xmlns="http://www.w3.org/2000/svg" xmlns:xlink="http://www.w3.org/1999/xlink" width="116" height="99" viewBox="0.547 0.703 114.58 97.361"><path paint-order="stroke fill markers" fill-rule="evenodd" d="M13.597 98.064c-4.11 0-7.587-1.417-9.791-3.99C1.649 91.558.84 88.098 1.465 84.07l1.45-9.351-2.368-.588L13.79 71.1c1.199 2.065 3.503 3.293 6.345 3.293.784 0 1.601-.095 2.429-.282 5.368-1.216 10.028-6.107 10.388-10.902.15-2.002-.428-3.768-1.67-5.107-1.324-1.427-3.298-2.213-5.556-2.213-.807 0-1.645.1-2.492.297-3.761.876-7.225 3.518-9.049 6.84l-9.808 2.264 1.468-9.46 29.539-6.99 8.595 5.391a8.614 8.614 0 0 0-.536 2.658c-.07 1.96.573 3.704 1.864 5.042 1.439 1.493 3.558 2.315 5.964 2.314.844 0 1.718-.1 2.596-.301 5.524-1.26 9.969-6.161 9.908-10.928-.052-4.107-3.28-6.975-7.85-6.975-.865 0-1.758.107-2.653.316a13.356 13.356 0 0 0-3.316 1.27l-2.644-1.609 23.442-5.545c1.436 1.75 3.792 2.763 6.558 2.763.91 0 1.848-.112 2.787-.332 5.484-1.287 9.609-5.966 9.195-10.43-.34-3.676-3.629-6.243-7.998-6.243-.932 0-1.891.116-2.848.346-3.74.9-6.913 3.357-8.349 6.394L2.363 49.122l4.849-2.108.553-3.566 44.924-10.873 5.592-5.66c.167.009.334.013.502.013.894 0 1.818-.115 2.745-.341 5.157-1.257 9.082-5.427 8.935-9.494-.12-3.368-3.02-5.72-7.05-5.72-.917 0-1.867.122-2.824.36-4.923 1.225-8.823 5.257-8.878 9.179-.01.746.12 1.464.379 2.13l-3.097 3.101-40.059 9.765 1.014-6.538 16.94-4.205c1.119 1.415 2.997 2.225 5.29 2.225.85 0 1.74-.113 2.645-.336 4.903-1.209 8.897-5.213 9.093-9.116.076-1.497-.403-2.834-1.383-3.865-1.16-1.22-2.938-1.892-5.006-1.892-.868 0-1.775.117-2.697.349-3.321.835-6.338 3.011-7.915 5.655L11.07 22.143l.892-5.757C13.143 8.764 24.371.703 33.804.703c.79 0 1.561.058 2.29.173L104.33 11.63c5.545.874 9.476 3.95 10.514 8.227 1.204 4.952-1.49 10.413-7.207 14.607L28.341 92.65c-4.758 3.49-9.995 5.415-14.743 5.415h-.001z"/></svg></svg><svg width="116" height="99" xmlns="http://www.w3.org/2000/svg" xmlns:xlink="http://www.w3.org/1999/xlink" xmlns:svgjs="http://svgjs.com/svgjs" viewBox="0 0.216 116 98.567" fill="#fff" x="1341" y="2766"><svg xmlns="http://www.w3.org/2000/svg" xmlns:xlink="http://www.w3.org/1999/xlink" width="116" height="99" viewBox="0.547 0.703 114.58 97.361"><path paint-order="stroke fill markers" fill-rule="evenodd" d="M13.597 98.064c-4.11 0-7.587-1.417-9.791-3.99C1.649 91.558.84 88.098 1.465 84.07l1.45-9.351-2.368-.588L13.79 71.1c1.199 2.065 3.503 3.293 6.345 3.293.784 0 1.601-.095 2.429-.282 5.368-1.216 10.028-6.107 10.388-10.902.15-2.002-.428-3.768-1.67-5.107-1.324-1.427-3.298-2.213-5.556-2.213-.807 0-1.645.1-2.492.297-3.761.876-7.225 3.518-9.049 6.84l-9.808 2.264 1.468-9.46 29.539-6.99 8.595 5.391a8.614 8.614 0 0 0-.536 2.658c-.07 1.96.573 3.704 1.864 5.042 1.439 1.493 3.558 2.315 5.964 2.314.844 0 1.718-.1 2.596-.301 5.524-1.26 9.969-6.161 9.908-10.928-.052-4.107-3.28-6.975-7.85-6.975-.865 0-1.758.107-2.653.316a13.356 13.356 0 0 0-3.316 1.27l-2.644-1.609 23.442-5.545c1.436 1.75 3.792 2.763 6.558 2.763.91 0 1.848-.112 2.787-.332 5.484-1.287 9.609-5.966 9.195-10.43-.34-3.676-3.629-6.243-7.998-6.243-.932 0-1.891.116-2.848.346-3.74.9-6.913 3.357-8.349 6.394L2.363 49.122l4.849-2.108.553-3.566 44.924-10.873 5.592-5.66c.167.009.334.013.502.013.894 0 1.818-.115 2.745-.341 5.157-1.257 9.082-5.427 8.935-9.494-.12-3.368-3.02-5.72-7.05-5.72-.917 0-1.867.122-2.824.36-4.923 1.225-8.823 5.257-8.878 9.179-.01.746.12 1.464.379 2.13l-3.097 3.101-40.059 9.765 1.014-6.538 16.94-4.205c1.119 1.415 2.997 2.225 5.29 2.225.85 0 1.74-.113 2.645-.336 4.903-1.209 8.897-5.213 9.093-9.116.076-1.497-.403-2.834-1.383-3.865-1.16-1.22-2.938-1.892-5.006-1.892-.868 0-1.775.117-2.697.349-3.321.835-6.338 3.011-7.915 5.655L11.07 22.143l.892-5.757C13.143 8.764 24.371.703 33.804.703c.79 0 1.561.058 2.29.173L104.33 11.63c5.545.874 9.476 3.95 10.514 8.227 1.204 4.952-1.49 10.413-7.207 14.607L28.341 92.65c-4.758 3.49-9.995 5.415-14.743 5.415h-.001z"/></svg></svg></svg><svg width="122" height="97" xmlns="http://www.w3.org/2000/svg" xmlns:xlink="http://www.w3.org/1999/xlink" xmlns:svgjs="http://svgjs.com/svgjs" viewBox="0 0.421 122 96.158" fill="#c1c1c1" x="1343" y="2776"><svg xmlns="http://www.w3.org/2000/svg" xmlns:xlink="http://www.w3.org/1999/xlink" width="122" height="97" viewBox="0.169 0.734 121.831 96.025"><path paint-order="stroke fill markers" fill-rule="evenodd" d="M121.903 19.25h-.01c-.43 4.233-3.009 8.735-8.024 12.475l-79.41 59.192c-7.847 5.845-16.053 7.038-21.92 4.756C6.742 93.63 2.463 87.831.17 84.755c.005.005.005.005.01.005.327.43.69.84 1.085 1.22 5.342 5.17 15.669 5.414 25.58-1.593.172-.12.338-.239.504-.363l79.296-58.186C118.38 17.228 116.929 4.49 105.84.74V.734c3.262.81 9.575 4.59 13.268 9.575a11.533 11.533 0 0 1 2.707 5.726 9.556 9.556 0 0 1 .088 3.216z"/></svg></svg><svg width="114" height="87" xmlns="http://www.w3.org/2000/svg" xmlns:xlink="http://www.w3.org/1999/xlink" xmlns:svgjs="http://svgjs.com/svgjs" viewBox="0.047 0 113.906 87" fill="#fff" x="1350" y="2785"><svg xmlns="http://www.w3.org/2000/svg" xmlns:xlink="http://www.w3.org/1999/xlink" width="114" height="87" viewBox="0.678 0.073 112.766 86.129"><path paint-order="stroke fill markers" fill-rule="evenodd" d="M11.629 86.203c-1.995 0-3.854-.33-5.525-.98-1.995-.704-3.815-1.909-5.426-3.296 1.25.26 2.562.393 3.919.393 5.323 0 10.906-1.958 16.146-5.663.179-.125.36-.254.54-.39l79.28-58.175c6.344-4.652 9.582-10.984 8.662-16.936a13.22 13.22 0 0 0-.214-1.083c.667.688 1.29 1.412 1.847 2.162l.035.049.04.046c1.253 1.442 2.042 3.11 2.347 4.958.132.691.183 1.332.157 1.952l-.092.853c-.416 4.091-3.046 8.134-7.406 11.385L26.529 80.67c-4.79 3.567-10.082 5.533-14.9 5.533z"/></svg></svg></svg><svg width="114" height="87" xmlns="http://www.w3.org/2000/svg" xmlns:xlink="http://www.w3.org/1999/xlink" xmlns:svgjs="http://svgjs.com/svgjs" viewBox="1350 2785 114 87" x="1350" y="2785"><svg width="114" height="87" xmlns="http://www.w3.org/2000/svg" xmlns:xlink="http://www.w3.org/1999/xlink" xmlns:svgjs="http://svgjs.com/svgjs" viewBox="0.047 0 113.906 87" fill="#fff" x="1350" y="2785"><svg xmlns="http://www.w3.org/2000/svg" width="114" height="87" viewBox="0.678 0.073 112.766 86.129"><path paint-order="stroke fill markers" fill-rule="evenodd" d="M11.629 86.203c-1.995 0-3.854-.33-5.525-.98-1.995-.704-3.815-1.909-5.426-3.296 1.25.26 2.562.393 3.919.393 5.323 0 10.906-1.958 16.146-5.663.179-.125.36-.254.54-.39l79.28-58.175c6.344-4.652 9.582-10.984 8.662-16.936a13.22 13.22 0 0 0-.214-1.083c.667.688 1.29 1.412 1.847 2.162l.035.049.04.046c1.253 1.442 2.042 3.11 2.347 4.958.132.691.183 1.332.157 1.952l-.092.853c-.416 4.091-3.046 8.134-7.406 11.385L26.529 80.67c-4.79 3.567-10.082 5.533-14.9 5.533z"/></svg></svg></svg></svg></svg>