<svg width="140" height="140" xmlns="http://www.w3.org/2000/svg" xmlns:xlink="http://www.w3.org/1999/xlink" xmlns:svgjs="http://svgjs.com/svgjs" viewBox="745 2749 140 140"><svg width="140" height="140" xmlns="http://www.w3.org/2000/svg" xmlns:xlink="http://www.w3.org/1999/xlink" xmlns:svgjs="http://svgjs.com/svgjs" viewBox="745 2749 140 140" x="745" y="2749"><svg width="90" height="74" xmlns="http://www.w3.org/2000/svg" xmlns:xlink="http://www.w3.org/1999/xlink" xmlns:svgjs="http://svgjs.com/svgjs" viewBox="0.146 0 89.708 74" fill="#fff" x="786" y="2804"><svg xmlns="http://www.w3.org/2000/svg" xmlns:xlink="http://www.w3.org/1999/xlink" width="90" height="74" viewBox="0.707 0.001 89.175 73.56"><path paint-order="stroke fill markers" fill-rule="evenodd" d="M.707 69.046a60.14 60.14 0 0 0 11.28 4.515l14.364-61.613h63.531A60.682 60.682 0 0 0 88.09 0H16.498L.708 69.046z"/></svg></svg><svg width="27" height="62" xmlns="http://www.w3.org/2000/svg" xmlns:xlink="http://www.w3.org/1999/xlink" xmlns:svgjs="http://svgjs.com/svgjs" viewBox="0.48 0 26.039 62" fill="#fff" x="808" y="2818"><svg xmlns="http://www.w3.org/2000/svg" xmlns:xlink="http://www.w3.org/1999/xlink" width="27" height="62" viewBox="0.324 0.53 25.8 61.43"><path paint-order="stroke fill markers" fill-rule="evenodd" d="M14.228.53L.324 61.591c3.775.404 7.502.493 11.487.186L26.125.53H14.228z"/></svg></svg><svg width="85" height="19" xmlns="http://www.w3.org/2000/svg" xmlns:xlink="http://www.w3.org/1999/xlink" xmlns:svgjs="http://svgjs.com/svgjs" viewBox="0 0.422 85 18.156" fill="#fff" x="758" y="2783"><svg xmlns="http://www.w3.org/2000/svg" xmlns:xlink="http://www.w3.org/1999/xlink" width="85" height="19" viewBox="0.771 0.557 83.617 17.861"><path paint-order="stroke fill markers" fill-rule="evenodd" d="M.771 12.478h68.744l-1.362 5.94h12.016L84.389.557H7.423A60.822 60.822 0 0 0 .77 12.478z"/></svg></svg><svg width="140" height="140" xmlns="http://www.w3.org/2000/svg" xmlns:xlink="http://www.w3.org/1999/xlink" xmlns:svgjs="http://svgjs.com/svgjs" viewBox="0 0.002 140 139.996" fill="#fff" x="745" y="2749"><svg xmlns="http://www.w3.org/2000/svg" width="140" height="140" viewBox="0 0 140 139.996"><path paint-order="stroke fill markers" fill-rule="evenodd" d="M70 0C31.39 0 0 31.428 0 70c0 39.245 32.5 71.128 72.138 69.965C109.82 138.827 140 107.857 140 70c0-38.598-31.402-70-70-70zM63.324 130.59C22.71 126.151-2.198 83.49 13.982 45.967 23.588 23.663 45.515 9.041 70 9.041c33.619 0 60.96 27.358 60.96 60.959 0 35.663-30.835 64.534-67.636 60.591z"/></svg></svg></svg></svg>