<svg width="170" height="163" xmlns="http://www.w3.org/2000/svg" xmlns:xlink="http://www.w3.org/1999/xlink" xmlns:svgjs="http://svgjs.com/svgjs" viewBox="1000 2196 170 163"><svg width="118" height="70" xmlns="http://www.w3.org/2000/svg" xmlns:xlink="http://www.w3.org/1999/xlink" xmlns:svgjs="http://svgjs.com/svgjs" opacity=".302" x="1026" y="2289"><svg xmlns="http://www.w3.org/2000/svg" xmlns:xlink="http://www.w3.org/1999/xlink" width="118" height="70"><path paint-order="stroke fill markers" fill-rule="evenodd" d="M59 70C26.373 70 0 54.355 0 35S26.373 0 59 0c32.627 0 59 15.645 59 35S91.627 70 59 70z"/></svg></svg><svg width="170" height="156" xmlns="http://www.w3.org/2000/svg" xmlns:xlink="http://www.w3.org/1999/xlink" xmlns:svgjs="http://svgjs.com/svgjs" viewBox="1000 2196 170 156" x="1000" y="2196"><svg width="50" height="80" xmlns="http://www.w3.org/2000/svg" xmlns:xlink="http://www.w3.org/1999/xlink" xmlns:svgjs="http://svgjs.com/svgjs" viewBox="1120 2212 50 80" x="1120" y="2212"><svg width="50" height="65" xmlns="http://www.w3.org/2000/svg" xmlns:xlink="http://www.w3.org/1999/xlink" xmlns:svgjs="http://svgjs.com/svgjs" viewBox="1120 2227 50 65" x="1120" y="2227"><svg width="50" height="65" xmlns="http://www.w3.org/2000/svg" xmlns:xlink="http://www.w3.org/1999/xlink" xmlns:svgjs="http://svgjs.com/svgjs" viewBox="0 0.056 50 64.888" fill="#00b4ff" x="1120" y="2227"><svg xmlns="http://www.w3.org/2000/svg" xmlns:xlink="http://www.w3.org/1999/xlink" width="50" height="65" viewBox="0.114 0.701 49.422 64.138"><path paint-order="stroke fill markers" fill-rule="evenodd" d="M46.56 26.135L3.197 1.1a3.798 3.798 0 0 0-.613-.278L2.509.811c-.18-.06-.34-.099-.502-.105h-.019C.938.633.207 1.418.203 2.818L.114 34.24c-.005 1.89 1.331 4.206 2.976 5.155L46.45 64.429c1.654.955 2.99.183 2.996-1.706l.089-31.422c.004-1.4-.72-3.026-1.759-4.159l-.028-.026c-.16-.18-.32-.328-.49-.47l-.086-.08a5.023 5.023 0 0 0-.614-.43zM1.49 36.275c-.207-.48-.329-.974-.328-1.43l.09-31.421c.001-.565.191-.966.496-1.183l15.477 28.893-15.735 5.14zM48.035 63.19L32.38 39.927 48.01 28.951c.291.56.48 1.18.477 1.744l-.088 31.422c-.001.478-.136.846-.363 1.073zm-23.23-21.71c-.983-.567-1.927-1.6-2.576-2.813L2.637 2.092l.057.01c.161.05.331.105.501.204l43.36 25.034c.171.098.341.24.511.381l.047.05-19.734 13.87c-.655.459-1.591.407-2.574-.16zM3.093 38.19a3.495 3.495 0 0 1-.783-.649L17.92 32.44l3.521 6.578c.894 1.67 2.121 2.954 3.36 3.67 1.228.709 2.458.842 3.359.21l3.518-2.472 15.513 23.051a1.822 1.822 0 0 1-.737-.251L3.093 38.19z"/></svg></svg></svg><svg width="50" height="32" xmlns="http://www.w3.org/2000/svg" xmlns:xlink="http://www.w3.org/1999/xlink" xmlns:svgjs="http://svgjs.com/svgjs" viewBox="1120 2212 50 32" x="1120" y="2212"><svg width="50" height="32" xmlns="http://www.w3.org/2000/svg" xmlns:xlink="http://www.w3.org/1999/xlink" xmlns:svgjs="http://svgjs.com/svgjs" viewBox="0 0.468 50 31.065" fill="#1a2766" x="1120" y="2212"><svg xmlns="http://www.w3.org/2000/svg" xmlns:xlink="http://www.w3.org/1999/xlink" width="50" height="32" viewBox="0.158 0.606 49.333 30.65"><path paint-order="stroke fill markers" fill-rule="evenodd" d="M47.975 27.541L1.685.815C.842.33.16.719.157 1.685c-.003.977.676 2.15 1.517 2.637l46.29 26.726c.84.485 1.523.096 1.526-.881.002-.966-.675-2.141-1.516-2.626z"/></svg></svg></svg><svg width="28" height="19" xmlns="http://www.w3.org/2000/svg" xmlns:xlink="http://www.w3.org/1999/xlink" xmlns:svgjs="http://svgjs.com/svgjs" viewBox="1120 2212 28 19" x="1120" y="2212"><svg width="28" height="19" xmlns="http://www.w3.org/2000/svg" xmlns:xlink="http://www.w3.org/1999/xlink" xmlns:svgjs="http://svgjs.com/svgjs" viewBox="0 0.295 28 18.41" fill="#00b4ff" x="1120" y="2212"><svg xmlns="http://www.w3.org/2000/svg" xmlns:xlink="http://www.w3.org/1999/xlink" width="28" height="19" viewBox="0.158 0.606 27.053 17.787"><path paint-order="stroke fill markers" fill-rule="evenodd" d="M25.694 14.677L1.684.815C.843.33.161.719.158 1.685c-.003.977.676 2.15 1.517 2.637l24.009 13.862c.841.486 1.524.097 1.527-.88.002-.967-.677-2.141-1.517-2.627z"/></svg></svg></svg></svg><svg width="104" height="156" xmlns="http://www.w3.org/2000/svg" xmlns:xlink="http://www.w3.org/1999/xlink" xmlns:svgjs="http://svgjs.com/svgjs" viewBox="1032 2196 104 156" x="1032" y="2196"><svg width="104" height="60" xmlns="http://www.w3.org/2000/svg" xmlns:xlink="http://www.w3.org/1999/xlink" xmlns:svgjs="http://svgjs.com/svgjs" viewBox="1032 2292 104 60" x="1032" y="2292"><svg width="104" height="60" xmlns="http://www.w3.org/2000/svg" xmlns:xlink="http://www.w3.org/1999/xlink" xmlns:svgjs="http://svgjs.com/svgjs" viewBox="0.207 0 103.586 60" fill="#00b4ff" x="1032" y="2292"><svg xmlns="http://www.w3.org/2000/svg" xmlns:xlink="http://www.w3.org/1999/xlink" width="104" height="60" viewBox="0.897 0.021 102.671 59.47"><path paint-order="stroke fill markers" fill-rule="evenodd" d="M88.414 8.733C68.302-2.879 35.791-2.884 15.81 8.728-4.173 20.34-4.056 39.17 16.056 50.784c20.112 11.61 52.613 11.61 72.595-.001 19.981-11.613 19.875-30.438-.237-42.05z"/></svg></svg></svg><svg width="104" height="93" xmlns="http://www.w3.org/2000/svg" xmlns:xlink="http://www.w3.org/1999/xlink" xmlns:svgjs="http://svgjs.com/svgjs" viewBox="0.33 0 103.34 93" fill="#00b4ff" opacity=".502" x="1032" y="2259"><svg xmlns="http://www.w3.org/2000/svg" xmlns:xlink="http://www.w3.org/1999/xlink" width="104" height="93" viewBox="0.897 0.094 102.671 92.398"><path paint-order="stroke fill markers" fill-rule="evenodd" d="M88.414 18.452C68.302-6.018 35.791-6.03 15.81 18.442 5.82 30.677.852 46.716.897 62.755v.001C.943 70.366 6 77.978 16.056 83.783c20.112 11.612 52.613 11.612 72.595 0 9.99-5.806 14.958-13.415 14.916-21.025-.043-16.036-5.097-32.072-15.153-44.306z"/></svg></svg><svg width="66" height="82" xmlns="http://www.w3.org/2000/svg" xmlns:xlink="http://www.w3.org/1999/xlink" xmlns:svgjs="http://svgjs.com/svgjs" viewBox="0.069 0 65.861 82" fill="#00b4ff" opacity=".502" x="1052" y="2196"><svg xmlns="http://www.w3.org/2000/svg" xmlns:xlink="http://www.w3.org/1999/xlink" width="66" height="82" viewBox="0.599 0.691 65.015 80.946"><path paint-order="stroke fill markers" fill-rule="evenodd" d="M65.362 34.122c-.357-1.25-1.077-2.187-1.95-2.805C61.193 12.879 46.157-.695 29.72.804 11.085 2.503.765 12.544.767 32.402c0 .828.033 1.647.082 2.461-.14 2.872-.31 5.76-.229 8.66.476 16.8 3.95 32.268 19.308 36.52 7.924 2.194 13.105 2.158 20.806-.33 8.53-2.755 12.356-11.738 14.082-18.733 2.517-2.689 4.588-5.876 6.076-9.514 1.29-.708 2.52-1.79 3.215-3.48.718-1.75 2.067-11.032 1.255-13.864zm-3.656-3.553l-.048-.01.048.01zm-3.448.826c-.039.033-.074.074-.112.11.038-.036.073-.076.112-.11zm1.657-.82c-.042.01-.085.022-.127.034l.127-.035zm-.813.284c-.045.022-.093.04-.137.064.046-.024.092-.042.137-.064zm-1.456 1.196c-.05.066-.101.134-.149.203.048-.07.099-.137.15-.203zm-1.804 23.663l.002-.011-.002.011z"/></svg></svg><svg width="64" height="61" xmlns="http://www.w3.org/2000/svg" xmlns:xlink="http://www.w3.org/1999/xlink" xmlns:svgjs="http://svgjs.com/svgjs" viewBox="1052 2196 64 61" x="1052" y="2196"><svg width="64" height="41" xmlns="http://www.w3.org/2000/svg" xmlns:xlink="http://www.w3.org/1999/xlink" xmlns:svgjs="http://svgjs.com/svgjs" viewBox="0.031 0 63.938 41" fill="#00b4ff" opacity=".502" x="1052" y="2196"><svg xmlns="http://www.w3.org/2000/svg" xmlns:xlink="http://www.w3.org/1999/xlink" width="64" height="41" viewBox="0.767 0.691 62.645 40.171"><path paint-order="stroke fill markers" fill-rule="evenodd" d="M1.344 26.404c.088-1.402 1.458-2.321 2.769-1.765 2.891 1.225 8.172 2.92 16.373 3.642 9.8.865 23.057-1.985 27.528-5.755 3.913-3.297 3.98 10.796 4.536 16.898.172 1.891 4.406 1.989 4.38-.135-.03-2.447.093-6.167.093-6.167 1.188-2.865 4.263-3.309 6.39-1.805C61.192 12.879 46.156-.695 29.72.804 11.085 2.503.765 12.544.767 32.402c0 .828.033 1.647.082 2.462.137-2.832.319-5.65.495-8.46z"/></svg></svg><svg width="7" height="10" xmlns="http://www.w3.org/2000/svg" xmlns:xlink="http://www.w3.org/1999/xlink" xmlns:svgjs="http://svgjs.com/svgjs" viewBox="0.307 0 6.387 10" fill="#00b4ff" opacity=".502" x="1106" y="2247"><svg xmlns="http://www.w3.org/2000/svg" xmlns:xlink="http://www.w3.org/1999/xlink" width="7" height="10" viewBox="0.816 0.466 6.076 9.513"><path paint-order="stroke fill markers" fill-rule="evenodd" d="M2.023 3.351A55.617 55.617 0 0 1 .816 9.98C3.333 7.29 5.404 4.104 6.892.466c-1.134.624-2.315.959-3.217 1.125a2.009 2.009 0 0 0-1.652 1.76z"/></svg></svg></svg></svg><svg width="86" height="103" xmlns="http://www.w3.org/2000/svg" xmlns:xlink="http://www.w3.org/1999/xlink" xmlns:svgjs="http://svgjs.com/svgjs" viewBox="1000 2232 86 103" x="1000" y="2232"><svg width="76" height="52" xmlns="http://www.w3.org/2000/svg" xmlns:xlink="http://www.w3.org/1999/xlink" xmlns:svgjs="http://svgjs.com/svgjs" viewBox="0 0.247 76 51.506" fill="#00b4ff" x="1005" y="2240"><svg xmlns="http://www.w3.org/2000/svg" xmlns:xlink="http://www.w3.org/1999/xlink" width="76" height="52" viewBox="0.616 0.987 74.702 50.627"><path paint-order="stroke fill markers" fill-rule="evenodd" d="M75.318 44.104L.638.987l-.022 7.51 74.68 43.116.022-7.509z"/></svg></svg><svg width="39" height="28" xmlns="http://www.w3.org/2000/svg" xmlns:xlink="http://www.w3.org/1999/xlink" xmlns:svgjs="http://svgjs.com/svgjs" viewBox="0 0.392 39 27.215" fill="#00b4ff" x="1042" y="2274"><svg xmlns="http://www.w3.org/2000/svg" xmlns:xlink="http://www.w3.org/1999/xlink" width="39" height="28" viewBox="0.076 0.899 38.206 26.661"><path paint-order="stroke fill markers" fill-rule="evenodd" d="M38.282 22.949L.089.899l-.013 4.61L38.27 27.56l.013-4.61z"/></svg></svg><svg width="34" height="25" xmlns="http://www.w3.org/2000/svg" xmlns:xlink="http://www.w3.org/1999/xlink" xmlns:svgjs="http://svgjs.com/svgjs" viewBox="0 0.31 34 24.381" fill="#00b4ff" x="1005" y="2253"><svg xmlns="http://www.w3.org/2000/svg" xmlns:xlink="http://www.w3.org/1999/xlink" width="34" height="25" viewBox="0.588 0.832 32.945 23.624"><path paint-order="stroke fill markers" fill-rule="evenodd" d="M33.533 19.845L.601.832l-.013 4.61L33.52 24.457l.013-4.61z"/></svg></svg><svg width="16" height="14" xmlns="http://www.w3.org/2000/svg" xmlns:xlink="http://www.w3.org/1999/xlink" xmlns:svgjs="http://svgjs.com/svgjs" viewBox="0.135 0 15.73 14" fill="#00b4ff" x="1065" y="2296"><svg xmlns="http://www.w3.org/2000/svg" xmlns:xlink="http://www.w3.org/1999/xlink" width="16" height="14" viewBox="0.538 0.43 14.721 13.102"><path paint-order="stroke fill markers" fill-rule="evenodd" d="M15.26 8.921L.55.43.538 5.04l14.708 8.492.013-4.61z"/></svg></svg><svg width="41" height="29" xmlns="http://www.w3.org/2000/svg" xmlns:xlink="http://www.w3.org/1999/xlink" xmlns:svgjs="http://svgjs.com/svgjs" viewBox="0 0.274 41 28.452" fill="#00b4ff" x="1022" y="2271"><svg xmlns="http://www.w3.org/2000/svg" xmlns:xlink="http://www.w3.org/1999/xlink" width="41" height="29" viewBox="0.676 0.683 39.48 27.397"><path paint-order="stroke fill markers" fill-rule="evenodd" d="M40.156 23.47L.689.682l-.013 4.61L40.143 28.08l.013-4.61z"/></svg></svg><svg width="14" height="13" xmlns="http://www.w3.org/2000/svg" xmlns:xlink="http://www.w3.org/1999/xlink" xmlns:svgjs="http://svgjs.com/svgjs" viewBox="0.082 0 13.836 13" fill="#00b4ff" x="1005" y="2261"><svg xmlns="http://www.w3.org/2000/svg" xmlns:xlink="http://www.w3.org/1999/xlink" width="14" height="13" viewBox="0.565 0.804 12.708 11.94"><path paint-order="stroke fill markers" fill-rule="evenodd" d="M13.274 8.134L.579.804.565 5.415l12.696 7.33.013-4.611z"/></svg></svg><svg width="9" height="10" xmlns="http://www.w3.org/2000/svg" xmlns:xlink="http://www.w3.org/1999/xlink" xmlns:svgjs="http://svgjs.com/svgjs" viewBox="0.286 0 8.427 10" fill="#00b4ff" x="1072" y="2308"><svg xmlns="http://www.w3.org/2000/svg" xmlns:xlink="http://www.w3.org/1999/xlink" width="9" height="10" viewBox="0.682 0.524 7.555 8.965"><path paint-order="stroke fill markers" fill-rule="evenodd" d="M8.237 4.878L.695.524l-.013 4.61L8.223 9.49l.014-4.61z"/></svg></svg><svg width="26" height="20" xmlns="http://www.w3.org/2000/svg" xmlns:xlink="http://www.w3.org/1999/xlink" xmlns:svgjs="http://svgjs.com/svgjs" viewBox="0 0.055 26 19.89" fill="#00b4ff" x="1044" y="2292"><svg xmlns="http://www.w3.org/2000/svg" xmlns:xlink="http://www.w3.org/1999/xlink" width="26" height="20" viewBox="0.5 0.253 24.531 18.766"><path paint-order="stroke fill markers" fill-rule="evenodd" d="M25.031 14.408L.513.253.5 4.863 25.018 19.02l.013-4.61z"/></svg></svg><svg width="36" height="26" xmlns="http://www.w3.org/2000/svg" xmlns:xlink="http://www.w3.org/1999/xlink" xmlns:svgjs="http://svgjs.com/svgjs" viewBox="0 0.261 36 25.478" fill="#00b4ff" x="1005" y="2269"><svg xmlns="http://www.w3.org/2000/svg" xmlns:xlink="http://www.w3.org/1999/xlink" width="36" height="26" viewBox="0.543 0.761 35.307 24.987"><path paint-order="stroke fill markers" fill-rule="evenodd" d="M35.85 21.138L.556.761l-.013 4.61L35.837 25.75l.013-4.611z"/></svg></svg><svg width="23" height="19" xmlns="http://www.w3.org/2000/svg" xmlns:xlink="http://www.w3.org/1999/xlink" xmlns:svgjs="http://svgjs.com/svgjs" viewBox="0 0.464 23 18.072" fill="#00b4ff" x="1005" y="2277"><svg xmlns="http://www.w3.org/2000/svg" xmlns:xlink="http://www.w3.org/1999/xlink" width="23" height="19" viewBox="0.52 0.718 22.088 17.356"><path paint-order="stroke fill markers" fill-rule="evenodd" d="M22.609 13.463L.534.718.52 5.328l22.076 12.746.013-4.61z"/></svg></svg><svg width="18" height="15" xmlns="http://www.w3.org/2000/svg" xmlns:xlink="http://www.w3.org/1999/xlink" xmlns:svgjs="http://svgjs.com/svgjs" viewBox="0.269 0 17.463 15" fill="#00b4ff" x="1030" y="2292"><svg xmlns="http://www.w3.org/2000/svg" xmlns:xlink="http://www.w3.org/1999/xlink" width="18" height="15" viewBox="0.978 0.416 16.345 14.04"><path paint-order="stroke fill markers" fill-rule="evenodd" d="M17.322 9.845L.991.415.978 5.028l16.331 9.429.013-4.61z"/></svg></svg><svg width="7" height="5" xmlns="http://www.w3.org/2000/svg" xmlns:xlink="http://www.w3.org/1999/xlink" xmlns:svgjs="http://svgjs.com/svgjs" viewBox="0.044 0 6.912 5" fill="#00b4ff" x="1039" y="2253"><svg xmlns="http://www.w3.org/2000/svg" xmlns:xlink="http://www.w3.org/1999/xlink" width="7" height="5" viewBox="0.11 0.301 5.907 4.273"><path paint-order="stroke fill markers" fill-rule="evenodd" d="M6.017 3.71L.113.302l-.003.864 5.905 3.41.002-.864z"/></svg></svg><svg width="7" height="5" xmlns="http://www.w3.org/2000/svg" xmlns:xlink="http://www.w3.org/1999/xlink" xmlns:svgjs="http://svgjs.com/svgjs" viewBox="0.044 0 6.913 5" fill="#00b4ff" x="1050" y="2260"><svg xmlns="http://www.w3.org/2000/svg" xmlns:xlink="http://www.w3.org/1999/xlink" width="7" height="5" viewBox="0.92 0.12 5.907 4.273"><path paint-order="stroke fill markers" fill-rule="evenodd" d="M6.827 3.529L.922.119.92.984l5.904 3.41.003-.864z"/></svg></svg><svg width="7" height="5" xmlns="http://www.w3.org/2000/svg" xmlns:xlink="http://www.w3.org/1999/xlink" xmlns:svgjs="http://svgjs.com/svgjs" viewBox="0.044 0 6.913 5" fill="#00b4ff" x="1015" y="2239"><svg xmlns="http://www.w3.org/2000/svg" xmlns:xlink="http://www.w3.org/1999/xlink" width="7" height="5" viewBox="0.478 0.658 5.907 4.273"><path paint-order="stroke fill markers" fill-rule="evenodd" d="M6.385 4.067L.481.657l-.003.864 5.905 3.41.002-.864z"/></svg></svg><svg width="7" height="5" xmlns="http://www.w3.org/2000/svg" xmlns:xlink="http://www.w3.org/1999/xlink" xmlns:svgjs="http://svgjs.com/svgjs" viewBox="0.044 0 6.913 5" fill="#00b4ff" x="1027" y="2246"><svg xmlns="http://www.w3.org/2000/svg" xmlns:xlink="http://www.w3.org/1999/xlink" width="7" height="5" viewBox="0.287 0.476 5.907 4.273"><path paint-order="stroke fill markers" fill-rule="evenodd" d="M6.195 3.885L.29.475l-.003.864 5.905 3.41.003-.864z"/></svg></svg><svg width="7" height="6" xmlns="http://www.w3.org/2000/svg" xmlns:xlink="http://www.w3.org/1999/xlink" xmlns:svgjs="http://svgjs.com/svgjs" viewBox="0 0.468 7 5.063" fill="#00b4ff" x="1062" y="2266"><svg xmlns="http://www.w3.org/2000/svg" xmlns:xlink="http://www.w3.org/1999/xlink" width="7" height="6" viewBox="0.729 0.938 5.907 4.273"><path paint-order="stroke fill markers" fill-rule="evenodd" d="M6.636 4.347L.732.937l-.003.865L6.634 5.21l.002-.864z"/></svg></svg><svg width="2" height="8" xmlns="http://www.w3.org/2000/svg" xmlns:xlink="http://www.w3.org/1999/xlink" xmlns:svgjs="http://svgjs.com/svgjs" viewBox="0.573 0 0.854 8" fill="#00b4ff" x="1000" y="2236"><svg xmlns="http://www.w3.org/2000/svg" xmlns:xlink="http://www.w3.org/1999/xlink" width="2" height="8" viewBox="0.577 0.547 0.771 7.219"><path paint-order="stroke fill markers" fill-rule="evenodd" d="M1.348.981L.596.547l-.02 6.785.753.434L1.348.98z"/></svg></svg><svg width="7" height="6" xmlns="http://www.w3.org/2000/svg" xmlns:xlink="http://www.w3.org/1999/xlink" xmlns:svgjs="http://svgjs.com/svgjs" viewBox="0 0.468 7 5.063" fill="#00b4ff" x="1074" y="2273"><svg xmlns="http://www.w3.org/2000/svg" xmlns:xlink="http://www.w3.org/1999/xlink" width="7" height="6" viewBox="0.538 0.756 5.907 4.273"><path paint-order="stroke fill markers" fill-rule="evenodd" d="M6.445 4.165L.541.756l-.003.863 5.905 3.41.002-.864z"/></svg></svg><svg width="1" height="8" xmlns="http://www.w3.org/2000/svg" xmlns:xlink="http://www.w3.org/1999/xlink" xmlns:svgjs="http://svgjs.com/svgjs" viewBox="0.08 0 0.84 8" fill="#00b4ff" x="1085" y="2309"><svg xmlns="http://www.w3.org/2000/svg" xmlns:xlink="http://www.w3.org/1999/xlink" width="1" height="8" viewBox="0.119 0.715 0.757 7.211"><path paint-order="stroke fill markers" fill-rule="evenodd" d="M.876 1.142L.138.715.12 7.5l.738.426.02-6.784z"/></svg></svg><svg width="6" height="5" xmlns="http://www.w3.org/2000/svg" xmlns:xlink="http://www.w3.org/1999/xlink" xmlns:svgjs="http://svgjs.com/svgjs" viewBox="0 0.33 6 4.34" fill="#00b4ff" x="1065" y="2323"><svg xmlns="http://www.w3.org/2000/svg" xmlns:xlink="http://www.w3.org/1999/xlink" width="6" height="5" viewBox="0.016 0.121 5.907 4.272"><path paint-order="stroke fill markers" fill-rule="evenodd" d="M5.923 3.53L.019.12.016.985l5.905 3.41.002-.864z"/></svg></svg><svg width="7" height="5" xmlns="http://www.w3.org/2000/svg" xmlns:xlink="http://www.w3.org/1999/xlink" xmlns:svgjs="http://svgjs.com/svgjs" viewBox="0.044 0 6.913 5" fill="#00b4ff" x="1053" y="2316"><svg xmlns="http://www.w3.org/2000/svg" xmlns:xlink="http://www.w3.org/1999/xlink" width="7" height="5" viewBox="0.207 0.303 5.907 4.273"><path paint-order="stroke fill markers" fill-rule="evenodd" d="M6.114 3.712L.209.302l-.002.864 5.904 3.41.003-.864z"/></svg></svg><svg width="7" height="6" xmlns="http://www.w3.org/2000/svg" xmlns:xlink="http://www.w3.org/1999/xlink" xmlns:svgjs="http://svgjs.com/svgjs" viewBox="0 0.471 7 5.058" fill="#00b4ff" x="1076" y="2329"><svg xmlns="http://www.w3.org/2000/svg" xmlns:xlink="http://www.w3.org/1999/xlink" width="7" height="6" viewBox="0.825 0.939 5.945 4.296"><path paint-order="stroke fill markers" fill-rule="evenodd" d="M6.732 4.348L.828.939l-.003.863 5.946 3.433-.039-.887z"/></svg></svg><svg width="1" height="8" xmlns="http://www.w3.org/2000/svg" xmlns:xlink="http://www.w3.org/1999/xlink" xmlns:svgjs="http://svgjs.com/svgjs" viewBox="0.035 0 0.929 8" fill="#00b4ff" x="1085" y="2282"><svg xmlns="http://www.w3.org/2000/svg" xmlns:xlink="http://www.w3.org/1999/xlink" width="1" height="8" viewBox="0.121 0.645 0.829 7.142"><path paint-order="stroke fill markers" fill-rule="evenodd" d="M.833.809L.12.645c.053.278.092.547.092.81L.196 7.36l.738.427.017-5.906A5.023 5.023 0 0 0 .833.81z"/></svg></svg><svg width="7" height="5" xmlns="http://www.w3.org/2000/svg" xmlns:xlink="http://www.w3.org/1999/xlink" xmlns:svgjs="http://svgjs.com/svgjs" viewBox="0.043 0 6.913 5" fill="#00b4ff" x="1041" y="2309"><svg xmlns="http://www.w3.org/2000/svg" xmlns:xlink="http://www.w3.org/1999/xlink" width="7" height="5" viewBox="0.397 0.485 5.907 4.272"><path paint-order="stroke fill markers" fill-rule="evenodd" d="M6.304 3.894L.4.484l-.003.864 5.905 3.41.002-.864z"/></svg></svg><svg width="1" height="8" xmlns="http://www.w3.org/2000/svg" xmlns:xlink="http://www.w3.org/1999/xlink" xmlns:svgjs="http://svgjs.com/svgjs" viewBox="0.08 0 0.84 8" fill="#00b4ff" x="1085" y="2323"><svg xmlns="http://www.w3.org/2000/svg" xmlns:xlink="http://www.w3.org/1999/xlink" width="1" height="8" viewBox="0.081 0.285 0.757 7.211"><path paint-order="stroke fill markers" fill-rule="evenodd" d="M.838.711L.1.285.08 7.07l.739.426L.838.711z"/></svg></svg><svg width="1" height="8" xmlns="http://www.w3.org/2000/svg" xmlns:xlink="http://www.w3.org/1999/xlink" xmlns:svgjs="http://svgjs.com/svgjs" viewBox="0.08 0 0.84 8" fill="#00b4ff" x="1085" y="2296"><svg xmlns="http://www.w3.org/2000/svg" xmlns:xlink="http://www.w3.org/1999/xlink" width="1" height="8" viewBox="0.158 0.145 0.757 7.211"><path paint-order="stroke fill markers" fill-rule="evenodd" d="M.915.572L.177.145.157 6.93l.739.426L.915.572z"/></svg></svg><svg width="2" height="8" xmlns="http://www.w3.org/2000/svg" xmlns:xlink="http://www.w3.org/1999/xlink" xmlns:svgjs="http://svgjs.com/svgjs" viewBox="0.573 0 0.854 8" fill="#00b4ff" x="1000" y="2250"><svg xmlns="http://www.w3.org/2000/svg" xmlns:xlink="http://www.w3.org/1999/xlink" width="2" height="8" viewBox="0.538 0.117 0.771 7.219"><path paint-order="stroke fill markers" fill-rule="evenodd" d="M1.31.55L.557.118l-.02 6.785.752.434L1.31.55z"/></svg></svg><svg width="2" height="8" xmlns="http://www.w3.org/2000/svg" xmlns:xlink="http://www.w3.org/1999/xlink" xmlns:svgjs="http://svgjs.com/svgjs" viewBox="0.536 0 0.929 8" fill="#00b4ff" x="1000" y="2277"><svg xmlns="http://www.w3.org/2000/svg" xmlns:xlink="http://www.w3.org/1999/xlink" width="2" height="8" viewBox="0.464 0.257 0.829 7.142"><path paint-order="stroke fill markers" fill-rule="evenodd" d="M1.232.69L.481.258.464 6.178c-.001.324.038.686.118 1.057l.711.164a4.128 4.128 0 0 1-.078-.787L1.232.69z"/></svg></svg><svg width="1" height="2" xmlns="http://www.w3.org/2000/svg" xmlns:xlink="http://www.w3.org/1999/xlink" xmlns:svgjs="http://svgjs.com/svgjs" viewBox="0.326 0 0.348 2" fill="#00b4ff" x="1003" y="2232"><svg xmlns="http://www.w3.org/2000/svg" xmlns:xlink="http://www.w3.org/1999/xlink" width="1" height="2" viewBox="0.591 0.809 0.08 0.463"><path paint-order="stroke fill markers" fill-rule="evenodd" d="M.671.855L.591.81l.08.462V.855z"/></svg></svg><svg width="2" height="8" xmlns="http://www.w3.org/2000/svg" xmlns:xlink="http://www.w3.org/1999/xlink" xmlns:svgjs="http://svgjs.com/svgjs" viewBox="0.573 0 0.854 8" fill="#00b4ff" x="1000" y="2263"><svg xmlns="http://www.w3.org/2000/svg" xmlns:xlink="http://www.w3.org/1999/xlink" width="2" height="8" viewBox="0.5 0.687 0.771 7.219"><path paint-order="stroke fill markers" fill-rule="evenodd" d="M1.27 1.121L.52.687.5 7.472l.752.434.019-6.785z"/></svg></svg><svg width="7" height="6" xmlns="http://www.w3.org/2000/svg" xmlns:xlink="http://www.w3.org/1999/xlink" xmlns:svgjs="http://svgjs.com/svgjs" viewBox="0 0.469 7 5.063" fill="#00b4ff" x="1017" y="2295"><svg xmlns="http://www.w3.org/2000/svg" xmlns:xlink="http://www.w3.org/1999/xlink" width="7" height="6" viewBox="0.765 0.841 5.907 4.272"><path paint-order="stroke fill markers" fill-rule="evenodd" d="M6.673 4.25L.768.84l-.003.864 5.905 3.41.003-.865z"/></svg></svg><svg width="7" height="6" xmlns="http://www.w3.org/2000/svg" xmlns:xlink="http://www.w3.org/1999/xlink" xmlns:svgjs="http://svgjs.com/svgjs" viewBox="0 0.477 7 5.047" fill="#00b4ff" x="1003" y="2232"><svg xmlns="http://www.w3.org/2000/svg" xmlns:xlink="http://www.w3.org/1999/xlink" width="7" height="6" viewBox="0.671 0.855 5.905 4.257"><path paint-order="stroke fill markers" fill-rule="evenodd" d="M6.576 4.249L.671.855l.011.856 5.892 3.401.002-.863z"/></svg></svg><svg width="7" height="5" xmlns="http://www.w3.org/2000/svg" xmlns:xlink="http://www.w3.org/1999/xlink" xmlns:svgjs="http://svgjs.com/svgjs" viewBox="0.044 0 6.913 5" fill="#00b4ff" x="1029" y="2302"><svg xmlns="http://www.w3.org/2000/svg" xmlns:xlink="http://www.w3.org/1999/xlink" width="7" height="5" viewBox="0.575 0.659 5.907 4.273"><path paint-order="stroke fill markers" fill-rule="evenodd" d="M6.482 4.068L.577.658l-.002.864 5.904 3.41.003-.864z"/></svg></svg><svg width="7" height="5" xmlns="http://www.w3.org/2000/svg" xmlns:xlink="http://www.w3.org/1999/xlink" xmlns:svgjs="http://svgjs.com/svgjs" viewBox="0.043 0 6.913 5" fill="#00b4ff" x="1005" y="2289"><svg xmlns="http://www.w3.org/2000/svg" width="7" height="5" viewBox="0.956 0.023 5.907 4.272"><path paint-order="stroke fill markers" fill-rule="evenodd" d="M6.863 3.432L.958.022.956.887 6.86 4.295l.002-.863z"/></svg></svg></svg></svg></svg>