<svg width="136" height="161" xmlns="http://www.w3.org/2000/svg" xmlns:xlink="http://www.w3.org/1999/xlink" xmlns:svgjs="http://svgjs.com/svgjs" viewBox="1017 1984 136 161"><svg width="112" height="71" xmlns="http://www.w3.org/2000/svg" xmlns:xlink="http://www.w3.org/1999/xlink" xmlns:svgjs="http://svgjs.com/svgjs" viewBox="0 0.547 112 69.906" opacity=".302" x="1032" y="2074"><svg xmlns="http://www.w3.org/2000/svg" xmlns:xlink="http://www.w3.org/1999/xlink" width="112" height="71" viewBox="0.017 0.747 111.573 69.64"><path paint-order="stroke fill markers" fill-rule="evenodd" d="M66.667 62.456C36.416 74.678 7.107 72.538 1.1 57.669-4.908 42.8 14.689 20.901 44.94 8.68 75.19-3.543 104.5-1.404 110.507 13.466c6.008 14.869-13.589 36.767-43.84 48.99z"/></svg></svg><svg width="136" height="160" xmlns="http://www.w3.org/2000/svg" xmlns:xlink="http://www.w3.org/1999/xlink" xmlns:svgjs="http://svgjs.com/svgjs" viewBox="1017 1984 136 160" x="1017" y="1984"><svg width="136" height="147" xmlns="http://www.w3.org/2000/svg" xmlns:xlink="http://www.w3.org/1999/xlink" xmlns:svgjs="http://svgjs.com/svgjs" viewBox="1017 1997 136 147" x="1017" y="1997"><svg width="14" height="17" xmlns="http://www.w3.org/2000/svg" xmlns:xlink="http://www.w3.org/1999/xlink" xmlns:svgjs="http://svgjs.com/svgjs" viewBox="0.26 0 13.479 17" fill="#fff" x="1139" y="2022"><svg xmlns="http://www.w3.org/2000/svg" xmlns:xlink="http://www.w3.org/1999/xlink" width="14" height="17" viewBox="0.364 0.118 12.757 16.089"><path paint-order="stroke fill markers" fill-rule="evenodd" d="M12.194 8.281c-1.515 2.968-8.442 9.351-10.615 7.64-2.175-1.713-1.974-8.348 5.16-10.625 3.627-1.16 1.429-5.47 3.34-5.162 2.969.476 3.947 4.554 2.115 8.147z"/></svg></svg><svg width="31" height="49" xmlns="http://www.w3.org/2000/svg" xmlns:xlink="http://www.w3.org/1999/xlink" xmlns:svgjs="http://svgjs.com/svgjs" viewBox="0 0.143 31 48.715" fill="#fff" x="1116" y="2063"><svg xmlns="http://www.w3.org/2000/svg" xmlns:xlink="http://www.w3.org/1999/xlink" width="31" height="49" viewBox="0.574 0.574 30.298 47.612"><path paint-order="stroke fill markers" fill-rule="evenodd" d="M30.872.574H.574l3.03 40.457h.005l-.004.098c0 3.897 5.425 7.057 12.118 7.057 6.693 0 12.119-3.16 12.119-7.057l-.004-.098h.004L30.872.574z"/></svg></svg><svg width="31" height="49" xmlns="http://www.w3.org/2000/svg" xmlns:xlink="http://www.w3.org/1999/xlink" xmlns:svgjs="http://svgjs.com/svgjs" viewBox="0 0.143 31 48.715" fill="#38a2cb" opacity=".502" x="1116" y="2063"><svg xmlns="http://www.w3.org/2000/svg" xmlns:xlink="http://www.w3.org/1999/xlink" width="31" height="49" viewBox="0.574 0.574 30.298 47.612"><path paint-order="stroke fill markers" fill-rule="evenodd" d="M30.872.574H.574l3.03 40.457h.005l-.004.098c0 3.897 5.425 7.057 12.118 7.057 6.693 0 12.119-3.16 12.119-7.057l-.004-.098h.004L30.872.574z"/></svg></svg><svg width="32" height="48" xmlns="http://www.w3.org/2000/svg" xmlns:xlink="http://www.w3.org/1999/xlink" xmlns:svgjs="http://svgjs.com/svgjs" viewBox="0.727 0 30.547 48" fill="#fff" x="1058" y="2096"><svg xmlns="http://www.w3.org/2000/svg" xmlns:xlink="http://www.w3.org/1999/xlink" width="32" height="48" viewBox="0.847 0.051 30.298 47.61"><path paint-order="stroke fill markers" fill-rule="evenodd" d="M31.145.051H.847l3.03 40.457h.005l-.004.096c0 3.898 5.425 7.057 12.118 7.057 6.693 0 12.119-3.159 12.119-7.057l-.004-.096h.004L31.145.05z"/></svg></svg><svg width="32" height="48" xmlns="http://www.w3.org/2000/svg" xmlns:xlink="http://www.w3.org/1999/xlink" xmlns:svgjs="http://svgjs.com/svgjs" viewBox="0.727 0 30.547 48" fill="#38a2cb" opacity=".502" x="1058" y="2096"><svg xmlns="http://www.w3.org/2000/svg" xmlns:xlink="http://www.w3.org/1999/xlink" width="32" height="48" viewBox="0.847 0.051 30.298 47.61"><path paint-order="stroke fill markers" fill-rule="evenodd" d="M31.145.051H.847l3.03 40.457h.005l-.004.096c0 3.898 5.425 7.057 12.118 7.057 6.693 0 12.119-3.159 12.119-7.057l-.004-.096h.004L31.145.05z"/></svg></svg><svg width="31" height="49" xmlns="http://www.w3.org/2000/svg" xmlns:xlink="http://www.w3.org/1999/xlink" xmlns:svgjs="http://svgjs.com/svgjs" viewBox="0 0.141 31 48.718" fill="#fff" x="1024" y="2075"><svg xmlns="http://www.w3.org/2000/svg" xmlns:xlink="http://www.w3.org/1999/xlink" width="31" height="49" viewBox="0.409 0.699 30.296 47.612"><path paint-order="stroke fill markers" fill-rule="evenodd" d="M30.705.699H.409l3.028 40.456h.004l-.004.099c0 3.896 5.426 7.057 12.119 7.057s12.12-3.16 12.12-7.057l-.006-.099h.006L30.705.7z"/></svg></svg><svg width="31" height="49" xmlns="http://www.w3.org/2000/svg" xmlns:xlink="http://www.w3.org/1999/xlink" xmlns:svgjs="http://svgjs.com/svgjs" viewBox="0 0.141 31 48.718" fill="#38a2cb" opacity=".502" x="1024" y="2075"><svg xmlns="http://www.w3.org/2000/svg" xmlns:xlink="http://www.w3.org/1999/xlink" width="31" height="49" viewBox="0.409 0.699 30.296 47.612"><path paint-order="stroke fill markers" fill-rule="evenodd" d="M30.705.699H.409l3.028 40.456h.004l-.004.099c0 3.896 5.426 7.057 12.119 7.057s12.12-3.16 12.12-7.057l-.006-.099h.006L30.705.7z"/></svg></svg><svg width="123" height="65" xmlns="http://www.w3.org/2000/svg" xmlns:xlink="http://www.w3.org/1999/xlink" xmlns:svgjs="http://svgjs.com/svgjs" viewBox="1024 2063 123 65" x="1024" y="2063"><svg width="31" height="48" xmlns="http://www.w3.org/2000/svg" xmlns:xlink="http://www.w3.org/1999/xlink" xmlns:svgjs="http://svgjs.com/svgjs" viewBox="0.037 0 30.926 48" fill="#fff" x="1116" y="2063"><svg xmlns="http://www.w3.org/2000/svg" xmlns:xlink="http://www.w3.org/1999/xlink" width="31" height="48" viewBox="0.574 0.574 30.298 47.026"><path paint-order="stroke fill markers" fill-rule="evenodd" d="M28.523 31.945l2.35-31.37H.573l3.03 40.456h.005l-.004.098c0 2.897 3.001 5.384 7.291 6.47 6.87-4.61 12.805-9.923 17.627-15.654z"/></svg></svg><svg width="31" height="48" xmlns="http://www.w3.org/2000/svg" xmlns:xlink="http://www.w3.org/1999/xlink" xmlns:svgjs="http://svgjs.com/svgjs" viewBox="0 0.217 31 47.566" fill="#fff" x="1024" y="2075"><svg xmlns="http://www.w3.org/2000/svg" xmlns:xlink="http://www.w3.org/1999/xlink" width="31" height="48" viewBox="0.409 0.699 30.296 46.486"><path paint-order="stroke fill markers" fill-rule="evenodd" d="M22.107 47.185c3.347-1.258 5.567-3.442 5.567-5.933l-.004-.097h.004L30.704.7H.41l2.414 32.256c4.757 6.16 11.39 10.961 19.284 14.23z"/></svg></svg><svg width="32" height="32" xmlns="http://www.w3.org/2000/svg" xmlns:xlink="http://www.w3.org/1999/xlink" xmlns:svgjs="http://svgjs.com/svgjs" viewBox="0.455 0 31.09 32" fill="#fff" x="1058" y="2096"><svg xmlns="http://www.w3.org/2000/svg" xmlns:xlink="http://www.w3.org/1999/xlink" width="32" height="32" viewBox="0.847 0.051 30.298 31.185"><path paint-order="stroke fill markers" fill-rule="evenodd" d="M28.888 30.184L31.145.05H.847L3.114 30.31c8.053 1.255 16.787 1.255 25.774-.126z"/></svg></svg></svg><svg width="134" height="126" xmlns="http://www.w3.org/2000/svg" xmlns:xlink="http://www.w3.org/1999/xlink" xmlns:svgjs="http://svgjs.com/svgjs" viewBox="0 0.276 134 125.448" fill="#fff" x="1018" y="1997"><svg xmlns="http://www.w3.org/2000/svg" xmlns:xlink="http://www.w3.org/1999/xlink" width="134" height="126" viewBox="0.019 0.911 133.551 125.028"><path paint-order="stroke fill markers" fill-rule="evenodd" d="M98 114.434c-32.628 19.96-72.95 13.293-90.206-14.915S2.962 32.376 35.59 12.416c32.627-19.96 72.949-13.293 90.205 14.916 17.256 28.208 4.832 67.143-27.796 87.102z"/></svg></svg><svg width="13" height="13" xmlns="http://www.w3.org/2000/svg" xmlns:xlink="http://www.w3.org/1999/xlink" xmlns:svgjs="http://svgjs.com/svgjs" viewBox="0.298 0 12.405 13" fill="#073a4e" x="1065" y="2055"><svg xmlns="http://www.w3.org/2000/svg" xmlns:xlink="http://www.w3.org/1999/xlink" width="13" height="13" viewBox="0.73 0.466 11.494 12.046"><path paint-order="stroke fill markers" fill-rule="evenodd" d="M12.092 5.327c.675 3.263-1.291 6.43-4.393 7.071-3.099.641-6.161-1.484-6.836-4.747-.675-3.262 1.29-6.429 4.39-7.07 3.102-.642 6.164 1.484 6.839 4.746z"/></svg></svg><svg width="48" height="43" xmlns="http://www.w3.org/2000/svg" xmlns:xlink="http://www.w3.org/1999/xlink" xmlns:svgjs="http://svgjs.com/svgjs" viewBox="1017 2073 48 43" x="1017" y="2073"><svg width="43" height="42" xmlns="http://www.w3.org/2000/svg" xmlns:xlink="http://www.w3.org/1999/xlink" xmlns:svgjs="http://svgjs.com/svgjs" viewBox="0 0.025 43 41.95" fill="#38a2cb" x="1022" y="2073"><svg xmlns="http://www.w3.org/2000/svg" xmlns:xlink="http://www.w3.org/1999/xlink" width="43" height="42" viewBox="0.107 0.304 41.965 40.94"><path paint-order="stroke fill markers" fill-rule="evenodd" d="M42.072 26.048c0 4.587-1.946 7.913-5.11 9.608 0 0-9.256 5.122-9.352 5.17-3.292 1.625-1.189-1.855-6.187-4.01C11.359 32.48 3.2 21.351 3.2 11.958c0-4.645-5.278-4.477-2.045-6.154 0 0 8.452-4.379 8.545-4.422 3.284-1.574 7.771-1.48 12.72.651 10.062 4.338 19.652 14.622 19.652 24.015z"/></svg></svg><svg width="38" height="39" xmlns="http://www.w3.org/2000/svg" xmlns:xlink="http://www.w3.org/1999/xlink" xmlns:svgjs="http://svgjs.com/svgjs" viewBox="0.032 0 37.937 39" fill="#38a2cb" x="1017" y="2077"><svg xmlns="http://www.w3.org/2000/svg" xmlns:xlink="http://www.w3.org/1999/xlink" width="38" height="39" viewBox="0.811 0.762 36.459 37.48"><path paint-order="stroke fill markers" fill-rule="evenodd" d="M34.09 35.575c-5.682 5.32-17.001 2.434-25.323-6.454C.445 20.232-1.69 8.748 3.99 3.429c5.681-5.32 17-2.434 25.323 6.454 8.322 8.889 10.456 20.373 4.775 25.692z"/></svg></svg><svg width="8" height="8" xmlns="http://www.w3.org/2000/svg" xmlns:xlink="http://www.w3.org/1999/xlink" xmlns:svgjs="http://svgjs.com/svgjs" viewBox="0.11 0 7.78 8" fill="#38a2cb" x="1024" y="2085"><svg xmlns="http://www.w3.org/2000/svg" xmlns:xlink="http://www.w3.org/1999/xlink" width="8" height="8" viewBox="0.924 0.776 6.724 6.915"><path paint-order="stroke fill markers" fill-rule="evenodd" d="M7.649 5.682c0 1.734-1.506 2.49-3.362 1.689C2.43 6.572.924 4.517.924 2.786c0-1.734 1.506-2.492 3.363-1.69 1.856.8 3.362 2.853 3.362 4.586z"/></svg></svg><svg width="8" height="8" xmlns="http://www.w3.org/2000/svg" xmlns:xlink="http://www.w3.org/1999/xlink" xmlns:svgjs="http://svgjs.com/svgjs" viewBox="0.11 0 7.78 8" fill="#38a2cb" x="1039" y="2093"><svg xmlns="http://www.w3.org/2000/svg" xmlns:xlink="http://www.w3.org/1999/xlink" width="8" height="8" viewBox="0.445 0.96 6.724 6.915"><path paint-order="stroke fill markers" fill-rule="evenodd" d="M7.17 5.867c0 1.734-1.506 2.49-3.363 1.688C1.95 6.757.445 4.702.445 2.968c0-1.732 1.506-2.49 3.362-1.688 1.857.8 3.363 2.853 3.363 4.587z"/></svg></svg><svg width="6" height="7" xmlns="http://www.w3.org/2000/svg" xmlns:xlink="http://www.w3.org/1999/xlink" xmlns:svgjs="http://svgjs.com/svgjs" viewBox="0 0.131 6 6.737" fill="#38a2cb" x="1026" y="2085"><svg xmlns="http://www.w3.org/2000/svg" xmlns:xlink="http://www.w3.org/1999/xlink" width="6" height="7" viewBox="0.554 0.791 5.095 5.721"><path paint-order="stroke fill markers" fill-rule="evenodd" d="M2.287 1.095C1.713.847 1.18.765.707.798c-.09.246-.153.512-.153.823 0 1.734 1.505 3.786 3.363 4.587.574.248 1.106.33 1.578.297.09-.246.154-.512.154-.823 0-1.733-1.506-3.786-3.362-4.587z"/></svg></svg><svg width="6" height="7" xmlns="http://www.w3.org/2000/svg" xmlns:xlink="http://www.w3.org/1999/xlink" xmlns:svgjs="http://svgjs.com/svgjs" viewBox="0 0.132 6 6.737" fill="#38a2cb" x="1041" y="2093"><svg xmlns="http://www.w3.org/2000/svg" xmlns:xlink="http://www.w3.org/1999/xlink" width="6" height="7" viewBox="0.075 0.976 5.095 5.721"><path paint-order="stroke fill markers" fill-rule="evenodd" d="M1.807 1.28C1.234 1.032.7.95.228.983c-.09.244-.153.511-.153.822 0 1.734 1.505 3.787 3.361 4.588.575.247 1.108.328 1.58.297.09-.246.154-.512.154-.823 0-1.734-1.506-3.786-3.363-4.587z"/></svg></svg><svg width="32" height="38" xmlns="http://www.w3.org/2000/svg" xmlns:xlink="http://www.w3.org/1999/xlink" xmlns:svgjs="http://svgjs.com/svgjs" viewBox="0.268 0 31.464 38" fill="#fff" x="1024" y="2077"><svg xmlns="http://www.w3.org/2000/svg" xmlns:xlink="http://www.w3.org/1999/xlink" width="32" height="38" viewBox="0.322 0.326 30.847 37.255"><path paint-order="stroke fill markers" fill-rule="evenodd" d="M12.854 2.062C8.004-.028 3.599-.164.322 1.294c3.054-.812 6.844-.44 10.95 1.329C21.387 6.982 29.587 18.169 29.587 27.61c0 4.916-2.226 8.386-5.784 9.97 4.471-1.19 7.366-4.922 7.366-10.53 0-9.442-8.2-20.63-18.315-24.99z"/></svg></svg></svg><svg width="11" height="12" xmlns="http://www.w3.org/2000/svg" xmlns:xlink="http://www.w3.org/1999/xlink" xmlns:svgjs="http://svgjs.com/svgjs" viewBox="0 0.256 11 11.487" fill="#073a4e" x="1031" y="2045"><svg xmlns="http://www.w3.org/2000/svg" xmlns:xlink="http://www.w3.org/1999/xlink" width="11" height="12" viewBox="0.021 0.045 10.849 11.329"><path paint-order="stroke fill markers" fill-rule="evenodd" d="M9.38 8.81c-2.062 2.617-5.494 3.353-7.669 1.64-2.172-1.711-2.263-5.222-.2-7.84C3.57-.006 7.005-.742 9.178.97c2.174 1.712 2.265 5.222.202 7.84z"/></svg></svg><svg width="43" height="16" xmlns="http://www.w3.org/2000/svg" xmlns:xlink="http://www.w3.org/1999/xlink" xmlns:svgjs="http://svgjs.com/svgjs" viewBox="0 0.529 43 14.941" fill="#10b2ff" x="1076" y="2007"><svg xmlns="http://www.w3.org/2000/svg" xmlns:xlink="http://www.w3.org/1999/xlink" width="43" height="16" viewBox="0.112 0.252 42.715 14.842"><path paint-order="stroke fill markers" fill-rule="evenodd" d="M4.691 14.79C17.134 8.007 30.127 4.463 42.115 3.788c.754-.042.982-1.036.329-1.41L40.33 1.17C39.118.477 37.723.15 36.333.28 24.662 1.376 12.513 4.775.895 11.005c-.945.508-1.055 1.824-.22 2.5l1.298 1.05c.774.626 1.844.71 2.718.234z"/></svg></svg><svg width="92" height="91" xmlns="http://www.w3.org/2000/svg" xmlns:xlink="http://www.w3.org/1999/xlink" xmlns:svgjs="http://svgjs.com/svgjs" viewBox="0.172 0 91.656 91" fill="#009eff" x="1020" y="2006"><svg xmlns="http://www.w3.org/2000/svg" xmlns:xlink="http://www.w3.org/1999/xlink" width="92" height="91" viewBox="0.857 0.188 90.833 90.182"><path paint-order="stroke fill markers" fill-rule="evenodd" d="M74.134 74.085c-19.821 19.17-48.297 21.791-63.704 5.862-15.407-15.93-11.839-44.303 7.983-63.474C38.234-2.698 66.71-5.318 82.117 10.612c15.407 15.93 11.838 44.302-7.983 63.473z"/></svg></svg><svg width="13" height="42" xmlns="http://www.w3.org/2000/svg" xmlns:xlink="http://www.w3.org/1999/xlink" xmlns:svgjs="http://svgjs.com/svgjs" viewBox="0 0.21 13 41.58" fill="#fff" x="1099" y="2024"><svg xmlns="http://www.w3.org/2000/svg" xmlns:xlink="http://www.w3.org/1999/xlink" width="13" height="42" viewBox="0.139 0.362 12.828 41.029"><path paint-order="stroke fill markers" fill-rule="evenodd" d="M1.25 41.39s5.735-2.827 10.285-9.333C15.4 26.531 11.17 1.113 2.126.363-1.759.041 1.25 41.391 1.25 41.391z"/></svg></svg><svg width="19" height="27" xmlns="http://www.w3.org/2000/svg" xmlns:xlink="http://www.w3.org/1999/xlink" xmlns:svgjs="http://svgjs.com/svgjs" viewBox="0.474 0 18.052 27" fill="#fff" x="1044" y="1999"><svg xmlns="http://www.w3.org/2000/svg" xmlns:xlink="http://www.w3.org/1999/xlink" width="19" height="27" viewBox="0.89 0.323 17.497 26.17"><path paint-order="stroke fill markers" fill-rule="evenodd" d="M12.19 26.493s6.351-3.627 6.194-7.73C18.206 14.105 10.34-.997 2.819.416c-7.521 1.415 9.372 26.077 9.372 26.077z"/></svg></svg><svg width="27" height="42" xmlns="http://www.w3.org/2000/svg" xmlns:xlink="http://www.w3.org/1999/xlink" xmlns:svgjs="http://svgjs.com/svgjs" viewBox="0.278 0 26.444 42" fill="#38a2cb" x="1079" y="2024"><svg xmlns="http://www.w3.org/2000/svg" xmlns:xlink="http://www.w3.org/1999/xlink" width="27" height="42" viewBox="0.386 0.346 25.842 41.045"><path paint-order="stroke fill markers" fill-rule="evenodd" d="M.386 12.813s6.933 6.096 11.898 13.204c5.188 7.423 8.966 15.374 8.966 15.374s8.468-33.134 3.316-39.609C19.414-4.69.386 12.812.386 12.812z"/></svg></svg><svg width="7" height="42" xmlns="http://www.w3.org/2000/svg" xmlns:xlink="http://www.w3.org/1999/xlink" xmlns:svgjs="http://svgjs.com/svgjs" viewBox="0.44 0 6.119 42" fill="#fff" x="1099" y="2024"><svg xmlns="http://www.w3.org/2000/svg" xmlns:xlink="http://www.w3.org/1999/xlink" width="7" height="42" viewBox="0.259 0.415 5.97 40.976"><path paint-order="stroke fill markers" fill-rule="evenodd" d="M4.566 1.782C3.94.995 3.104.568 2.124.415c.404.226.766.523 1.077.913 4.486 5.64-1.36 31.508-2.942 38.08.635 1.237.991 1.983.991 1.983S9.718 8.257 4.566 1.782z"/></svg></svg><svg width="19" height="28" xmlns="http://www.w3.org/2000/svg" xmlns:xlink="http://www.w3.org/1999/xlink" xmlns:svgjs="http://svgjs.com/svgjs" viewBox="0.557 0 17.886 28" fill="#38a2cb" x="1082" y="2032"><svg xmlns="http://www.w3.org/2000/svg" xmlns:xlink="http://www.w3.org/1999/xlink" width="19" height="28" viewBox="0.61 0.07 17.56 27.49"><path paint-order="stroke fill markers" fill-rule="evenodd" d="M.61 7.875c2.454 2.454 5.878 6.136 8.674 10.142 2.329 3.332 4.37 6.766 5.916 9.543 1.545-6.801 4.727-22.655 1.73-26.418C13.91-2.654 4.5 4.596.61 7.875z"/></svg></svg><svg width="26" height="31" xmlns="http://www.w3.org/2000/svg" xmlns:xlink="http://www.w3.org/1999/xlink" xmlns:svgjs="http://svgjs.com/svgjs" viewBox="0.348 0 25.303 31" fill="#38a2cb" x="1031" y="1999"><svg xmlns="http://www.w3.org/2000/svg" xmlns:xlink="http://www.w3.org/1999/xlink" width="26" height="31" viewBox="0.373 0.416 24.817 30.405"><path paint-order="stroke fill markers" fill-rule="evenodd" d="M.373 30.82s6.349-4.5 13.573-5.258c4.807-.504 11.245.931 11.245.931S24.199.538 15.819.416C6.627.282.373 30.821.373 30.821z"/></svg></svg><svg width="12" height="27" xmlns="http://www.w3.org/2000/svg" xmlns:xlink="http://www.w3.org/1999/xlink" xmlns:svgjs="http://svgjs.com/svgjs" viewBox="0.383 0 11.233 27" fill="#fff" x="1045" y="1999"><svg xmlns="http://www.w3.org/2000/svg" xmlns:xlink="http://www.w3.org/1999/xlink" width="12" height="27" viewBox="0.341 0.416 10.849 26.077"><path paint-order="stroke fill markers" fill-rule="evenodd" d="M.68.645c7.732.112 9.174 22.197 9.351 25.618.723.134 1.16.23 1.16.23S10.199.538 1.819.416A4.402 4.402 0 0 0 .341.674C.456.666.566.642.68.644z"/></svg></svg><svg width="20" height="23" xmlns="http://www.w3.org/2000/svg" xmlns:xlink="http://www.w3.org/1999/xlink" xmlns:svgjs="http://svgjs.com/svgjs" viewBox="0.119 0 19.762 23" fill="#38a2cb" x="1034" y="2005"><svg xmlns="http://www.w3.org/2000/svg" xmlns:xlink="http://www.w3.org/1999/xlink" width="20" height="23" viewBox="0.453 0.872 19 22.114"><path paint-order="stroke fill markers" fill-rule="evenodd" d="M10.946 19.562c2.82-.295 6.193.075 8.507.433-.309-4.52-1.728-19.041-7.275-19.122C6.152.784 1.74 17.493.453 22.986c2.535-1.338 6.368-2.99 10.493-3.424z"/></svg></svg><svg width="4" height="4" xmlns="http://www.w3.org/2000/svg" xmlns:xlink="http://www.w3.org/1999/xlink" xmlns:svgjs="http://svgjs.com/svgjs" viewBox="0.092 0 3.816 4" fill="#fff" x="1068" y="2057"><svg xmlns="http://www.w3.org/2000/svg" xmlns:xlink="http://www.w3.org/1999/xlink" width="4" height="4" viewBox="0.873 0.683 2.77 2.904"><path paint-order="stroke fill markers" fill-rule="evenodd" d="M3.611 1.855c.164.785-.31 1.549-1.059 1.704-.747.154-1.485-.358-1.647-1.145C.742 1.629 1.216.865 1.964.71c.746-.154 1.484.358 1.647 1.145z"/></svg></svg><svg width="4" height="3" xmlns="http://www.w3.org/2000/svg" xmlns:xlink="http://www.w3.org/1999/xlink" xmlns:svgjs="http://svgjs.com/svgjs" viewBox="0.564 0 2.873 3" fill="#fff" x="1034" y="2047"><svg xmlns="http://www.w3.org/2000/svg" xmlns:xlink="http://www.w3.org/1999/xlink" width="4" height="3" viewBox="0.835 0.127 2.483 2.593"><path paint-order="stroke fill markers" fill-rule="evenodd" d="M2.978 2.134c-.473.598-1.258.767-1.756.376C.724 2.116.705 1.313 1.175.715c.472-.6 1.26-.768 1.756-.376.497.392.52 1.194.047 1.795z"/></svg></svg></svg><svg width="34" height="41" xmlns="http://www.w3.org/2000/svg" xmlns:xlink="http://www.w3.org/1999/xlink" xmlns:svgjs="http://svgjs.com/svgjs" viewBox="1080 1984 34 41" x="1080" y="1984"><svg width="34" height="41" xmlns="http://www.w3.org/2000/svg" xmlns:xlink="http://www.w3.org/1999/xlink" xmlns:svgjs="http://svgjs.com/svgjs" viewBox="1080 1984 34 41" x="1080" y="1984"><svg width="34" height="41" xmlns="http://www.w3.org/2000/svg" xmlns:xlink="http://www.w3.org/1999/xlink" xmlns:svgjs="http://svgjs.com/svgjs" viewBox="1080 1984 34 41" x="1080" y="1984"><svg width="31" height="40" xmlns="http://www.w3.org/2000/svg" xmlns:xlink="http://www.w3.org/1999/xlink" xmlns:svgjs="http://svgjs.com/svgjs" viewBox="0.054 0 30.891 40" fill="#ffbb96" x="1080" y="1984"><svg xmlns="http://www.w3.org/2000/svg" xmlns:xlink="http://www.w3.org/1999/xlink" width="31" height="40" viewBox="0.335 0.603 30.2 39.105"><path paint-order="stroke fill markers" fill-rule="evenodd" d="M.335 27.49c0 4.47 1.54 7.635 4.05 9.168.075.045 4.282 2.649 4.359 2.69 2.607 1.46.94-1.85 4.902-4.139 7.974-4.602 14.439-15.753 14.439-24.904 0-4.524 4.182-4.56 1.62-6.07-.072-.042-4.78-2.724-4.854-2.763-2.601-1.41-6.157-1.15-10.08 1.113C6.799 7.19.336 18.34.336 27.49z"/></svg></svg><svg width="17" height="16" xmlns="http://www.w3.org/2000/svg" xmlns:xlink="http://www.w3.org/1999/xlink" xmlns:svgjs="http://svgjs.com/svgjs" viewBox="0 0.253 17 15.494" fill="#231f20" x="1080" y="2008"><svg xmlns="http://www.w3.org/2000/svg" xmlns:xlink="http://www.w3.org/1999/xlink" width="17" height="16" viewBox="0.335 0.644 16.529 15.064"><path paint-order="stroke fill markers" fill-rule="evenodd" d="M.546.644C.418 1.606.335 2.56.335 3.489c0 4.47 1.54 7.636 4.05 9.169.075.045 4.282 2.649 4.359 2.69 2.607 1.46.94-1.85 4.902-4.139 1.108-.64 2.18-1.414 3.218-2.284L.546.644z"/></svg></svg><svg width="29" height="38" xmlns="http://www.w3.org/2000/svg" xmlns:xlink="http://www.w3.org/1999/xlink" xmlns:svgjs="http://svgjs.com/svgjs" viewBox="0 0.373 29 37.254" fill="#ffba78" x="1085" y="1987"><svg xmlns="http://www.w3.org/2000/svg" xmlns:xlink="http://www.w3.org/1999/xlink" width="29" height="38" viewBox="0.051 0.406 28.887 37.109"><path paint-order="stroke fill markers" fill-rule="evenodd" d="M24.64 24.892C18.96 34.609 9.832 39.814 4.222 36.534c-5.61-3.28-5.553-13.787.128-23.504C10.03 3.312 19.158-1.892 24.768 1.388c5.61 3.28 5.553 13.786-.128 23.504z"/></svg></svg><svg width="23" height="28" xmlns="http://www.w3.org/2000/svg" xmlns:xlink="http://www.w3.org/1999/xlink" xmlns:svgjs="http://svgjs.com/svgjs" viewBox="0.602 0 21.796 28" fill="#ffba78" x="1088" y="1992"><svg xmlns="http://www.w3.org/2000/svg" xmlns:xlink="http://www.w3.org/1999/xlink" width="23" height="28" viewBox="0.816 0.242 21.359 27.438"><path paint-order="stroke fill markers" fill-rule="evenodd" d="M18.996 18.346C14.796 25.53 8.047 29.379 3.9 26.954-.249 24.529-.207 16.76 3.994 9.575 8.194 2.39 14.942-1.457 19.09.967c4.148 2.426 4.106 10.194-.095 17.379z"/></svg></svg><svg width="21" height="27" xmlns="http://www.w3.org/2000/svg" xmlns:xlink="http://www.w3.org/1999/xlink" xmlns:svgjs="http://svgjs.com/svgjs" viewBox="0.445 0 20.111 27" fill="#ffbb96" x="1090" y="1993"><svg xmlns="http://www.w3.org/2000/svg" xmlns:xlink="http://www.w3.org/1999/xlink" width="21" height="27" viewBox="0.497 0.258 19.673 26.413"><path paint-order="stroke fill markers" fill-rule="evenodd" d="M8.509 24.275c5.896-3.403 10.674-11.648 10.674-18.412 0-2.422-.62-4.316-1.677-5.605 1.653 1.203 2.665 3.44 2.665 6.54 0 6.766-4.78 15.01-10.676 18.412-3.785 2.186-7.103 1.834-8.998-.482 1.956 1.424 4.816 1.393 8.012-.453z"/></svg></svg><svg width="25" height="37" xmlns="http://www.w3.org/2000/svg" xmlns:xlink="http://www.w3.org/1999/xlink" xmlns:svgjs="http://svgjs.com/svgjs" viewBox="1080 1984 25 37" x="1080" y="1984"><svg width="6" height="4" xmlns="http://www.w3.org/2000/svg" xmlns:xlink="http://www.w3.org/1999/xlink" xmlns:svgjs="http://svgjs.com/svgjs" viewBox="0 0.271 6 3.459" fill="#fdd65b" x="1094" y="1986"><svg xmlns="http://www.w3.org/2000/svg" xmlns:xlink="http://www.w3.org/1999/xlink" width="6" height="4" viewBox="0.457 0.438 5.4 3.113"><path paint-order="stroke fill markers" fill-rule="evenodd" d="M.457.786c.106-.063.21-.138.317-.2C.87.53.963.49 1.059.437l4.798 2.768c-.122.067-.24.117-.362.187-.085.048-.166.109-.248.158L.457.786z"/></svg></svg><svg width="7" height="4" xmlns="http://www.w3.org/2000/svg" xmlns:xlink="http://www.w3.org/1999/xlink" xmlns:svgjs="http://svgjs.com/svgjs" viewBox="0 0.189 7 3.622" fill="#fdd65b" x="1098" y="1984"><svg xmlns="http://www.w3.org/2000/svg" xmlns:xlink="http://www.w3.org/1999/xlink" width="7" height="4" viewBox="0.786 0.753 5.738 2.969"><path paint-order="stroke fill markers" fill-rule="evenodd" d="M1.69.753l4.835 2.793a11.16 11.16 0 0 0-.9.177L.786.928c.307-.075.604-.126.904-.175z"/></svg></svg><svg width="6" height="4" xmlns="http://www.w3.org/2000/svg" xmlns:xlink="http://www.w3.org/1999/xlink" xmlns:svgjs="http://svgjs.com/svgjs" viewBox="0 0.187 6 3.627" fill="#fdd65b" x="1091" y="1988"><svg xmlns="http://www.w3.org/2000/svg" xmlns:xlink="http://www.w3.org/1999/xlink" width="6" height="4" viewBox="0.145 0.811 5.258 3.178"><path paint-order="stroke fill markers" fill-rule="evenodd" d="M.625.81l4.778 2.758c-.163.136-.32.282-.482.421L.145 1.23c.16-.14.317-.285.48-.42z"/></svg></svg><svg width="6" height="4" xmlns="http://www.w3.org/2000/svg" xmlns:xlink="http://www.w3.org/1999/xlink" xmlns:svgjs="http://svgjs.com/svgjs" viewBox="0 0.093 6 3.814" fill="#fdd65b" x="1086" y="1994"><svg xmlns="http://www.w3.org/2000/svg" xmlns:xlink="http://www.w3.org/1999/xlink" width="6" height="4" viewBox="0.054 0.506 5.109 3.247"><path paint-order="stroke fill markers" fill-rule="evenodd" d="M.4.506l4.762 2.751c-.118.163-.232.33-.346.496L.054 1.003C.168.838.282.672.4.507z"/></svg></svg><svg width="6" height="4" xmlns="http://www.w3.org/2000/svg" xmlns:xlink="http://www.w3.org/1999/xlink" xmlns:svgjs="http://svgjs.com/svgjs" viewBox="0 0.137 6 3.726" fill="#fdd65b" x="1088" y="1991"><svg xmlns="http://www.w3.org/2000/svg" xmlns:xlink="http://www.w3.org/1999/xlink" width="6" height="4" viewBox="0.39 0.535 5.178 3.215"><path paint-order="stroke fill markers" fill-rule="evenodd" d="M.797.535l4.77 2.753c-.137.151-.273.307-.409.462L.39.995C.524.84.66.686.797.535z"/></svg></svg><svg width="6" height="4" xmlns="http://www.w3.org/2000/svg" xmlns:xlink="http://www.w3.org/1999/xlink" xmlns:svgjs="http://svgjs.com/svgjs" viewBox="0 0.052 6 3.895" fill="#fdd65b" x="1084" y="1997"><svg xmlns="http://www.w3.org/2000/svg" xmlns:xlink="http://www.w3.org/1999/xlink" width="6" height="4" viewBox="0.08 0.692 5.044 3.274"><path paint-order="stroke fill markers" fill-rule="evenodd" d="M.37.692l4.754 2.745c-.099.176-.191.353-.288.53L.08 1.222c.096-.177.189-.355.29-.53z"/></svg></svg><svg width="6" height="5" xmlns="http://www.w3.org/2000/svg" xmlns:xlink="http://www.w3.org/1999/xlink" xmlns:svgjs="http://svgjs.com/svgjs" viewBox="0 0.355 6 4.29" fill="#fdd65b" x="1081" y="2016"><svg xmlns="http://www.w3.org/2000/svg" xmlns:xlink="http://www.w3.org/1999/xlink" width="6" height="5" viewBox="0.161 0.5 5.054 3.613"><path paint-order="stroke fill markers" fill-rule="evenodd" d="M.161.5l4.684 2.702c.114.314.232.621.37.91L.55 1.42a11.085 11.085 0 0 1-.388-.92z"/></svg></svg><svg width="6" height="5" xmlns="http://www.w3.org/2000/svg" xmlns:xlink="http://www.w3.org/1999/xlink" xmlns:svgjs="http://svgjs.com/svgjs" viewBox="0 0.328 6 4.344" fill="#fdd65b" x="1080" y="2011"><svg xmlns="http://www.w3.org/2000/svg" xmlns:xlink="http://www.w3.org/1999/xlink" width="6" height="5" viewBox="0.353 0.926 4.754 3.442"><path paint-order="stroke fill markers" fill-rule="evenodd" d="M5.074 3.652c.004.244.02.48.033.716L.387 1.643A17.17 17.17 0 0 1 .352.926l4.72 2.726z"/></svg></svg><svg width="6" height="5" xmlns="http://www.w3.org/2000/svg" xmlns:xlink="http://www.w3.org/1999/xlink" xmlns:svgjs="http://svgjs.com/svgjs" viewBox="0 0.393 6 4.213" fill="#fdd65b" x="1080" y="2007"><svg xmlns="http://www.w3.org/2000/svg" xmlns:xlink="http://www.w3.org/1999/xlink" width="6" height="5" viewBox="0.547 0.98 4.817 3.383"><path paint-order="stroke fill markers" fill-rule="evenodd" d="M.547 1.632c.03-.219.046-.433.081-.652l4.737 2.736c-.035.217-.057.43-.087.647L.548 1.632z"/></svg></svg><svg width="6" height="4" xmlns="http://www.w3.org/2000/svg" xmlns:xlink="http://www.w3.org/1999/xlink" xmlns:svgjs="http://svgjs.com/svgjs" viewBox="0.06 0 5.881 4" fill="#fdd65b" x="1081" y="2004"><svg xmlns="http://www.w3.org/2000/svg" xmlns:xlink="http://www.w3.org/1999/xlink" width="6" height="4" viewBox="0.311 0.365 4.91 3.34"><path paint-order="stroke fill markers" fill-rule="evenodd" d="M5.221 3.105c-.061.2-.11.401-.167.6L.31.968C.368.767.415.566.476.365l4.745 2.74z"/></svg></svg><svg width="6" height="5" xmlns="http://www.w3.org/2000/svg" xmlns:xlink="http://www.w3.org/1999/xlink" xmlns:svgjs="http://svgjs.com/svgjs" viewBox="0 0.507 6 3.987" fill="#fdd65b" x="1082" y="2000"><svg xmlns="http://www.w3.org/2000/svg" xmlns:xlink="http://www.w3.org/1999/xlink" width="6" height="5" viewBox="0.498 0.983 4.979 3.308"><path paint-order="stroke fill markers" fill-rule="evenodd" d="M.498 1.55c.076-.19.147-.379.228-.567l4.75 2.743c-.082.187-.151.376-.23.565L.498 1.549z"/></svg></svg></svg><svg width="26" height="38" xmlns="http://www.w3.org/2000/svg" xmlns:xlink="http://www.w3.org/1999/xlink" xmlns:svgjs="http://svgjs.com/svgjs" viewBox="0 0.053 26 37.894" fill="#ffbb96" x="1080" y="1984"><svg xmlns="http://www.w3.org/2000/svg" xmlns:xlink="http://www.w3.org/1999/xlink" width="26" height="38" viewBox="0.335 0.603 25.168 36.681"><path paint-order="stroke fill markers" fill-rule="evenodd" d="M14.774 2.585C18.694.322 22.25.062 24.85 1.472l.652.36c-2.539-1.079-5.849-.72-9.484 1.377C8.045 7.814 1.581 18.964 1.581 28.113c0 4.47 1.543 7.636 4.05 9.169.06.037-1.171-.579-1.246-.624-2.507-1.533-4.05-4.7-4.05-9.169 0-9.149 6.463-20.299 14.439-24.904z"/></svg></svg><svg width="25" height="37" xmlns="http://www.w3.org/2000/svg" xmlns:xlink="http://www.w3.org/1999/xlink" xmlns:svgjs="http://svgjs.com/svgjs" viewBox="0.317 0 24.365 37" fill="#fff" x="1084" y="1987"><svg xmlns="http://www.w3.org/2000/svg" xmlns:xlink="http://www.w3.org/1999/xlink" width="25" height="37" viewBox="0.424 0.045 24.257 36.835"><path paint-order="stroke fill markers" fill-rule="evenodd" d="M14.863 1.984C18.687-.224 22.097-.458 24.681.833 22.272.16 19.285.663 16.05 2.531 8.076 7.136 1.61 18.284 1.61 27.435c0 4.765 1.755 8.043 4.56 9.444-3.525-.986-5.747-4.555-5.747-9.99 0-9.152 6.465-20.302 14.439-24.905z"/></svg></svg><svg width="10" height="18" xmlns="http://www.w3.org/2000/svg" xmlns:xlink="http://www.w3.org/1999/xlink" xmlns:svgjs="http://svgjs.com/svgjs" viewBox="1094 1997 10 18" x="1094" y="1997"><svg width="10" height="18" xmlns="http://www.w3.org/2000/svg" xmlns:xlink="http://www.w3.org/1999/xlink" xmlns:svgjs="http://svgjs.com/svgjs" viewBox="0.413 0 9.175 18" fill="#ffbb96" x="1094" y="1997"><svg xmlns="http://www.w3.org/2000/svg" xmlns:xlink="http://www.w3.org/1999/xlink" width="10" height="18" viewBox="0.833 0.074 8.771 17.208"><path paint-order="stroke fill markers" fill-rule="evenodd" d="M8.167 4.286c-.027-.03-.12-.056-.267-.075a3.261 3.261 0 0 0-.573-.014c-.23.01-.486.037-.77.09a4.255 4.255 0 0 0-.854.254v2.407l.494-.145c.524-.136.996-.229 1.417-.278.421-.05.778-.012 1.07.108.296.118.52.339.68.66.159.32.24.769.24 1.348 0 .67-.103 1.302-.31 1.893a6.686 6.686 0 0 1-.826 1.635c-.342.5-.74.957-1.185 1.366a9.551 9.551 0 0 1-1.41 1.078v2.053l-1.065.616v-2.07a9.116 9.116 0 0 1-2.104.72c-.693.14-1.316.157-1.871.053l1.108-3.168c.04.035.153.068.332.1.181.031.408.041.687.027.275-.011.59-.05.937-.116a5.593 5.593 0 0 0 1.08-.332v-2.352l-.738.177c-.504.116-.94.175-1.313.183-.367.008-.674-.055-.915-.187a1.198 1.198 0 0 1-.539-.625c-.118-.288-.177-.666-.177-1.136 0-.614.093-1.212.278-1.797.183-.584.435-1.14.747-1.663a7.95 7.95 0 0 1 1.11-1.442 9.198 9.198 0 0 1 1.378-1.179V.69L5.873.074v1.787c.667-.315 1.294-.506 1.879-.572a8.332 8.332 0 0 1 1.529-.052L8.167 4.286zm-4.27 2.306c0 .295.092.474.273.541.18.067.449.063.807-.014V4.943c-.718.486-1.08 1.037-1.08 1.649zm2.991 3.898c0-.305-.106-.481-.323-.529-.214-.045-.502-.037-.862.03v2.121c.791-.492 1.185-1.033 1.185-1.622z"/></svg></svg></svg><svg width="10" height="18" xmlns="http://www.w3.org/2000/svg" xmlns:xlink="http://www.w3.org/1999/xlink" xmlns:svgjs="http://svgjs.com/svgjs" viewBox="1095 1997 10 18" x="1095" y="1997"><svg width="10" height="18" xmlns="http://www.w3.org/2000/svg" xmlns:xlink="http://www.w3.org/1999/xlink" xmlns:svgjs="http://svgjs.com/svgjs" viewBox="0.412 0 9.175 18" fill="#ffba78" x="1095" y="1997"><svg xmlns="http://www.w3.org/2000/svg" xmlns:xlink="http://www.w3.org/1999/xlink" width="10" height="18" viewBox="0.649 0.401 8.771 17.207"><path paint-order="stroke fill markers" fill-rule="evenodd" d="M7.986 4.612c-.03-.03-.122-.055-.27-.074a3.195 3.195 0 0 0-.57-.014c-.23.01-.489.037-.772.09a4.135 4.135 0 0 0-.854.256v2.405l.494-.144c.523-.137.996-.23 1.417-.28.423-.048.78-.011 1.07.11.296.117.522.338.68.658.16.321.24.77.24 1.348 0 .672-.103 1.303-.31 1.893a6.753 6.753 0 0 1-.824 1.636c-.345.5-.74.956-1.187 1.366-.447.41-.919.771-1.409 1.078v2.054l-1.064.614v-2.07c-.71.339-1.411.579-2.106.72-.693.14-1.317.16-1.872.055l1.108-3.17c.042.036.154.069.333.1.181.032.407.042.687.028.275-.012.59-.05.938-.116a5.62 5.62 0 0 0 1.079-.332V10.47l-.738.177a6.377 6.377 0 0 1-1.313.183c-.368.008-.675-.055-.915-.187a1.207 1.207 0 0 1-.54-.626c-.117-.285-.176-.665-.176-1.135 0-.614.092-1.213.277-1.797a7.75 7.75 0 0 1 .748-1.663 7.955 7.955 0 0 1 1.11-1.442 9.195 9.195 0 0 1 1.38-1.179V1.017L5.69.401v1.787c.665-.315 1.293-.506 1.878-.573a8.137 8.137 0 0 1 1.529-.049L7.986 4.612zM3.716 6.92c0 .295.09.476.271.541.179.067.449.063.807-.014V5.27c-.716.486-1.079 1.037-1.079 1.649zm2.99 3.898c0-.305-.108-.482-.324-.53-.215-.044-.502-.037-.862.03v2.122c.791-.492 1.187-1.033 1.187-1.622z"/></svg></svg></svg><svg width="10" height="18" xmlns="http://www.w3.org/2000/svg" xmlns:xlink="http://www.w3.org/1999/xlink" xmlns:svgjs="http://svgjs.com/svgjs" viewBox="1095 1997 10 18" x="1095" y="1997"><svg width="10" height="18" xmlns="http://www.w3.org/2000/svg" xmlns:xlink="http://www.w3.org/1999/xlink" xmlns:svgjs="http://svgjs.com/svgjs" viewBox="0.412 0 9.175 18" fill="#f49587" x="1095" y="1997"><svg xmlns="http://www.w3.org/2000/svg" xmlns:xlink="http://www.w3.org/1999/xlink" width="10" height="18" viewBox="0.649 0.401 8.771 17.207"><path paint-order="stroke fill markers" fill-rule="evenodd" d="M7.986 4.612c-.03-.03-.122-.055-.27-.074a3.195 3.195 0 0 0-.57-.014c-.23.01-.489.037-.772.09a4.135 4.135 0 0 0-.854.256v2.405l.494-.144c.523-.137.996-.23 1.417-.28.423-.048.78-.011 1.07.11.296.117.522.338.68.658.16.321.24.77.24 1.348 0 .672-.103 1.303-.31 1.893a6.753 6.753 0 0 1-.824 1.636c-.345.5-.74.956-1.187 1.366-.447.41-.919.771-1.409 1.078v2.054l-1.064.614v-2.07c-.71.339-1.411.579-2.106.72-.693.14-1.317.16-1.872.055l1.108-3.17c.042.036.154.069.333.1.181.032.407.042.687.028.275-.012.59-.05.938-.116a5.62 5.62 0 0 0 1.079-.332V10.47l-.738.177a6.377 6.377 0 0 1-1.313.183c-.368.008-.675-.055-.915-.187a1.207 1.207 0 0 1-.54-.626c-.117-.285-.176-.665-.176-1.135 0-.614.092-1.213.277-1.797a7.75 7.75 0 0 1 .748-1.663 7.955 7.955 0 0 1 1.11-1.442 9.195 9.195 0 0 1 1.38-1.179V1.017L5.69.401v1.787c.665-.315 1.293-.506 1.878-.573a8.137 8.137 0 0 1 1.529-.049L7.986 4.612zM3.716 6.92c0 .295.09.476.271.541.179.067.449.063.807-.014V5.27c-.716.486-1.079 1.037-1.079 1.649zm2.99 3.898c0-.305-.108-.482-.324-.53-.215-.044-.502-.037-.862.03v2.122c.791-.492 1.187-1.033 1.187-1.622z"/></svg></svg></svg><svg width="28" height="15" xmlns="http://www.w3.org/2000/svg" xmlns:xlink="http://www.w3.org/1999/xlink" xmlns:svgjs="http://svgjs.com/svgjs" viewBox="0 0.308 28 14.383" fill="#231f20" x="1085" y="2005"><svg xmlns="http://www.w3.org/2000/svg" width="28" height="15" viewBox="0.115 0.45 27.441 14.096"><path paint-order="stroke fill markers" fill-rule="evenodd" d="M.115 10.582c.106 1.498.406 2.82.864 3.964 7.836-3.45 15.747-5.888 23.49-7.382A34.187 34.187 0 0 0 27.555.45 113.547 113.547 0 0 0 .314 8.747c-.093.617-.156 1.23-.199 1.835z"/></svg></svg></svg></svg></svg></svg></svg>