<svg width="131" height="175" xmlns="http://www.w3.org/2000/svg" xmlns:xlink="http://www.w3.org/1999/xlink" xmlns:svgjs="http://svgjs.com/svgjs" viewBox="435 1979 131 175"><svg width="86" height="44" xmlns="http://www.w3.org/2000/svg" xmlns:xlink="http://www.w3.org/1999/xlink" xmlns:svgjs="http://svgjs.com/svgjs" viewBox="0 0.592 86 42.815" opacity=".302" x="470" y="2110"><svg xmlns="http://www.w3.org/2000/svg" xmlns:xlink="http://www.w3.org/1999/xlink" width="86" height="44" viewBox="0.157 0.844 84.989 42.312"><path paint-order="stroke fill markers" fill-rule="evenodd" d="M47.708 34.517C24.378 43.943 3.261 45.967.464 39.045c-2.796-6.922 13.8-20.136 37.13-29.562C60.924.057 82.04-1.967 84.838 4.955c2.797 6.922-13.8 20.136-37.13 29.562z"/></svg></svg><svg width="131" height="161" xmlns="http://www.w3.org/2000/svg" xmlns:xlink="http://www.w3.org/1999/xlink" xmlns:svgjs="http://svgjs.com/svgjs" viewBox="435 1979 131 161" x="435" y="1979"><svg width="131" height="156" xmlns="http://www.w3.org/2000/svg" xmlns:xlink="http://www.w3.org/1999/xlink" xmlns:svgjs="http://svgjs.com/svgjs" viewBox="435 1979 131 156" x="435" y="1979"><svg width="131" height="156" xmlns="http://www.w3.org/2000/svg" xmlns:xlink="http://www.w3.org/1999/xlink" xmlns:svgjs="http://svgjs.com/svgjs" viewBox="0 0.217 131 155.566" fill="#1b5060" opacity=".302" x="435" y="1979"><svg xmlns="http://www.w3.org/2000/svg" xmlns:xlink="http://www.w3.org/1999/xlink" width="131" height="156" viewBox="0 0 130.75 155.269"><path paint-order="stroke fill markers" fill-rule="evenodd" d="M.715 61.103c18.738-10.635 37.057-27.747 52.41-48.945l.21-.12c15.353 3.455 33.673-.6 52.41-11.615L106.46 0l24.289 13.884-11.363 7.484c-3.555 47.457-22.066 86.419-51.857 132.547l-.724.42c-5.354-2.105 2.757 2.746-1.847.147-.2-.113-27.436-15.234-27.636-15.347-20.661-11.867-33.424-30.07-36.312-65.293L0 61.511l.715-.408z"/></svg></svg><svg width="107" height="139" xmlns="http://www.w3.org/2000/svg" xmlns:xlink="http://www.w3.org/1999/xlink" xmlns:svgjs="http://svgjs.com/svgjs" viewBox="0.208 0 106.585 139" fill="#19b5fe" x="435" y="1979"><svg xmlns="http://www.w3.org/2000/svg" xmlns:xlink="http://www.w3.org/1999/xlink" width="107" height="139" viewBox="0 0 106.516 138.91"><path paint-order="stroke fill markers" fill-rule="evenodd" d="M.697 61.288C18.983 50.62 36.86 33.457 51.841 12.194l.204-.119c14.983 3.465 32.86-.603 51.143-11.651l.7-.424 2.628 1.666-.7.42C87.532 13.134 69.656 17.204 54.673 13.74l-.202.118C39.487 35.121 21.61 52.283 3.328 62.952l-.7.408.987 12.369c2.642 33.12 13.753 51.238 31.747 63.181C15.825 126.994 3.755 108.766.986 74.065L0 61.696l.697-.408z"/></svg></svg><svg width="104" height="65" xmlns="http://www.w3.org/2000/svg" xmlns:xlink="http://www.w3.org/1999/xlink" xmlns:svgjs="http://svgjs.com/svgjs" viewBox="0 0.284 104 64.433" fill="#19b5fe" opacity=".302" x="435" y="1990"><svg xmlns="http://www.w3.org/2000/svg" xmlns:xlink="http://www.w3.org/1999/xlink" width="104" height="65" viewBox="0 0.739 103.16 63.912"><path paint-order="stroke fill markers" fill-rule="evenodd" d="M.697 48.583C18.983 38.213 36.86 21.526 51.841.855l.204-.116c.099.023.198.04.297.062l50.818 29.294-75.336 34.557L0 48.98l.697-.397z"/></svg></svg><svg width="19" height="82" xmlns="http://www.w3.org/2000/svg" xmlns:xlink="http://www.w3.org/1999/xlink" xmlns:svgjs="http://svgjs.com/svgjs" viewBox="0.512 0 17.975 82" fill="#b3edff" x="526" y="1980"><svg xmlns="http://www.w3.org/2000/svg" xmlns:xlink="http://www.w3.org/1999/xlink" width="19" height="82" viewBox="0.401 0.589 17.672 80.618"><path paint-order="stroke fill markers" fill-rule="evenodd" d="M14.917 13.427l.492-11.318c.655-.367 1.31-.725 1.966-1.111l.699-.41-.986 13.164C15.288 37.755 9.552 59.529.401 81.207c8.434-21.897 13.466-43.791 14.516-67.78z"/></svg></svg></svg><svg width="113" height="145" xmlns="http://www.w3.org/2000/svg" xmlns:xlink="http://www.w3.org/1999/xlink" xmlns:svgjs="http://svgjs.com/svgjs" viewBox="453 1990 113 145" x="453" y="1990"><svg width="113" height="145" xmlns="http://www.w3.org/2000/svg" xmlns:xlink="http://www.w3.org/1999/xlink" xmlns:svgjs="http://svgjs.com/svgjs" viewBox="0.215 0 112.57 145" fill="#19b5fe" x="453" y="1990"><svg xmlns="http://www.w3.org/2000/svg" xmlns:xlink="http://www.w3.org/1999/xlink" width="113" height="145" viewBox="0.804 0.073 111.945 144.196"><path paint-order="stroke fill markers" fill-rule="evenodd" d="M1.528 61.296c18.936-10.658 37.45-27.802 52.965-49.043l.21-.12C70.22 15.596 88.734 11.53 107.67.496l.723-.422 4.358 2.534-11.483 7.498c-3.593 47.55-22.3 86.589-52.406 132.807l-.732.421c-5.41-2.109 2.787 2.752-1.867.147-.2-.113-7.539-3.886-7.738-4-20.883-11.89-33.778-30.131-36.697-65.42L.804 61.703l.724-.407z"/></svg></svg><svg width="85" height="54" xmlns="http://www.w3.org/2000/svg" xmlns:xlink="http://www.w3.org/1999/xlink" xmlns:svgjs="http://svgjs.com/svgjs" viewBox="0 0.158 85 53.683" fill="#19b5fe" x="453" y="2001"><svg xmlns="http://www.w3.org/2000/svg" xmlns:xlink="http://www.w3.org/1999/xlink" width="85" height="54" viewBox="0.804 0.81 83.667 52.842"><path paint-order="stroke fill markers" fill-rule="evenodd" d="M1.503 48.656C19.788 38.283 37.665 21.598 52.646.927L52.85.81c.098.023.198.04.297.062l31.324 18.223L9.135 53.652l-8.33-4.6.698-.396z"/></svg></svg></svg><svg width="105" height="148" xmlns="http://www.w3.org/2000/svg" xmlns:xlink="http://www.w3.org/1999/xlink" xmlns:svgjs="http://svgjs.com/svgjs" viewBox="0.09 0 104.819 148" fill="#fff" x="460" y="1991"><svg xmlns="http://www.w3.org/2000/svg" xmlns:xlink="http://www.w3.org/1999/xlink" width="105" height="148" viewBox="0.673 0.776 103.888 146.685"><path paint-order="stroke fill markers" fill-rule="evenodd" d="M1.372 61.97c18.285-10.653 36.16-27.79 51.144-49.02l.202-.12c14.983 3.46 32.859-.603 51.145-11.633l.698-.42-.985 13.519c-3.471 47.53-21.533 86.549-50.606 132.746l-.707.42c-29.07-11.72-47.133-29.32-50.603-72.736l-.987-12.35.7-.406z"/></svg></svg><svg width="104" height="148" xmlns="http://www.w3.org/2000/svg" xmlns:xlink="http://www.w3.org/1999/xlink" xmlns:svgjs="http://svgjs.com/svgjs" viewBox="0 0.577 104 146.846" fill="#b3edff" x="462" y="1992"><svg xmlns="http://www.w3.org/2000/svg" xmlns:xlink="http://www.w3.org/1999/xlink" width="104" height="148" viewBox="0.023 0.315 103.886 146.685"><path paint-order="stroke fill markers" fill-rule="evenodd" d="M.72 61.508c18.285-10.653 36.161-27.79 51.144-49.017l.203-.12c14.982 3.458 32.858-.603 51.142-11.636l.7-.42-.987 13.52C99.452 61.363 81.39 100.382 52.32 146.58l-.707.42C22.54 135.28 4.478 117.682 1.01 74.266l-.986-12.35.697-.408z"/></svg></svg><svg width="104" height="148" xmlns="http://www.w3.org/2000/svg" xmlns:xlink="http://www.w3.org/1999/xlink" xmlns:svgjs="http://svgjs.com/svgjs" viewBox="0 0.577 104 146.846" fill="#2e3192" x="462" y="1992"><svg xmlns="http://www.w3.org/2000/svg" xmlns:xlink="http://www.w3.org/1999/xlink" width="104" height="148" viewBox="0.023 0.315 103.886 146.685"><path paint-order="stroke fill markers" fill-rule="evenodd" d="M.72 61.508c18.285-10.653 36.161-27.79 51.144-49.017l.203-.12c14.982 3.458 32.858-.603 51.142-11.636l.7-.42-.987 13.52C99.452 61.363 81.39 100.382 52.32 146.58l-.707.42C22.54 135.28 4.478 117.682 1.01 74.266l-.986-12.35.697-.408z"/></svg></svg><svg width="54" height="85" xmlns="http://www.w3.org/2000/svg" xmlns:xlink="http://www.w3.org/1999/xlink" xmlns:svgjs="http://svgjs.com/svgjs" viewBox="0.212 0 53.577 85" fill="#00dbff" x="459" y="2055"><svg xmlns="http://www.w3.org/2000/svg" xmlns:xlink="http://www.w3.org/1999/xlink" width="54" height="85" viewBox="0.868 0.222 52.807 83.778"><path paint-order="stroke fill markers" fill-rule="evenodd" d="M1.566.76c.305-.172.61-.361.914-.538l.978 11.914c3.454 42.08 21.375 59.25 50.217 70.664-.172.263-.34.525-.51.791l-.707.409C23.385 72.588 5.324 55.454 1.854 13.182L.868 1.158l.698-.399z"/></svg></svg><svg width="93" height="126" xmlns="http://www.w3.org/2000/svg" xmlns:xlink="http://www.w3.org/1999/xlink" xmlns:svgjs="http://svgjs.com/svgjs" viewBox="0.104 0 92.793 126" fill="#16a1d8" x="467" y="2007"><svg xmlns="http://www.w3.org/2000/svg" width="93" height="126" viewBox="0.957 0.831 91.535 124.292"><path paint-order="stroke fill markers" fill-rule="evenodd" d="M44.748 125.123c26.13-40.313 44.125-76.71 47.53-121.461l.214-2.83C80.572 6.463 68.77 9.405 57.928 9.405c-2.9 0-5.751-.21-8.512-.622C34.993 27.76 18.338 43.062.956 53.294l.695 8.335c3.19 38.306 18.796 53.285 43.097 63.494z"/></svg></svg></svg></svg>