<svg xmlns="http://www.w3.org/2000/svg" width="137" height="28" viewBox="0 0 137 28"><g><g><g><path fill="#fff" d="M123.24 8.67c.57-1.92 2.46-2.97 4.5-2.97v5.1c-1.11-.18-2.13 0-3.09.57-.93.54-1.41 1.5-1.41 2.85V21h-4.5V6h4.5zm-15.87 8.49c1.05 0 1.92-.33 2.58-.99.66-.66.99-1.56.99-2.67 0-1.11-.33-2.01-.99-2.67-.66-.66-1.53-.99-2.58-.99s-1.92.33-2.58.99c-.66.66-.99 1.56-.99 2.67 0 1.11.33 2.01.99 2.67.66.66 1.53.99 2.58.99zM110.94 6h4.5v15h-4.5v-1.41c-1.05 1.23-2.55 1.83-4.47 1.83-1.98 0-3.66-.75-5.07-2.28-1.41-1.53-2.1-3.42-2.1-5.64 0-2.22.69-4.08 2.1-5.61 1.41-1.53 3.09-2.31 5.07-2.31 1.92 0 3.42.6 4.47 1.83zm-17.76 5.94c-.45-1.59-1.5-2.37-3.18-2.37-1.74 0-2.82.78-3.27 2.37zm-6.36 3.36c.51 1.41 1.71 2.1 3.6 2.1 1.23 0 2.19-.39 2.88-1.14l3.6 2.07c-1.47 2.07-3.66 3.09-6.54 3.09-2.52 0-4.53-.75-6.06-2.25-1.5-1.5-2.25-3.39-2.25-5.67 0-2.25.75-4.14 2.22-5.64 1.5-1.53 3.42-2.28 5.76-2.28 2.19 0 3.99.75 5.43 2.28 1.47 1.5 2.19 3.39 2.19 5.64 0 .63-.06 1.23-.18 1.8zm-15.33 1.38c1.05 0 1.92-.33 2.61-.96.69-.63 1.02-1.47 1.02-2.52s-.33-1.89-1.02-2.52c-.69-.63-1.56-.96-2.61-.96-1.05 0-1.92.33-2.61.96-.69.63-1.02 1.47-1.02 2.52s.33 1.89 1.02 2.52c.69.63 1.56.96 2.61.96zM75.12 6h4.38v14.25c0 2.37-.78 4.14-2.31 5.34-1.53 1.23-3.42 1.83-5.61 1.83-3.39 0-5.76-1.2-7.11-3.63l3.84-2.22c.69 1.26 1.83 1.89 3.42 1.89 2.13 0 3.39-1.14 3.39-3.21v-1.38c-1.05 1.29-2.49 1.95-4.38 1.95-2.1 0-3.87-.75-5.28-2.22-1.41-1.5-2.1-3.3-2.1-5.4 0-2.1.69-3.9 2.1-5.37 1.41-1.5 3.18-2.25 5.28-2.25 1.89 0 3.33.66 4.38 1.95zM59.4 7.23c1.08 1.11 1.62 2.61 1.62 4.56V21h-4.5v-8.55c0-1.77-1.08-2.73-2.61-2.73-1.71 0-2.79 1.05-2.79 3.09V21h-4.5V0h4.5v7.41c.9-1.23 2.34-1.83 4.29-1.83 1.59 0 2.94.54 3.99 1.65zM32.19 19.14c-1.5-1.53-2.25-3.39-2.25-5.64 0-2.25.75-4.11 2.25-5.64 1.53-1.53 3.42-2.28 5.7-2.28 2.88 0 5.46 1.53 6.78 3.84l-3.93 2.28c-.54-1.11-1.5-1.68-2.91-1.68-1.95 0-3.39 1.44-3.39 3.48s1.44 3.48 3.39 3.48c1.41 0 2.4-.57 2.91-1.68l3.93 2.25c-1.32 2.37-3.87 3.87-6.78 3.87-2.28 0-4.17-.75-5.7-2.28zm-8.52-7.2c-.45-1.59-1.5-2.37-3.18-2.37-1.74 0-2.82.78-3.27 2.37zm-6.36 3.36c.51 1.41 1.71 2.1 3.6 2.1 1.23 0 2.19-.39 2.88-1.14l3.6 2.07c-1.47 2.07-3.66 3.09-6.54 3.09-2.52 0-4.53-.75-6.06-2.25-1.5-1.5-2.25-3.39-2.25-5.67 0-2.25.75-4.14 2.22-5.64 1.5-1.53 3.42-2.28 5.76-2.28 2.19 0 3.99.75 5.43 2.28 1.47 1.5 2.19 3.39 2.19 5.64 0 .63-.06 1.23-.18 1.8zm-6.87-4.98H7.35v5.31c0 1.2.9 1.41 3.09 1.29V21c-2.85.3-4.83.03-5.94-.81-1.11-.87-1.65-2.37-1.65-4.56v-5.31H.45V6h2.4V3.15l4.5-1.35V6h3.09z"/></g><g><path fill="#19b5fe" d="M136.638 12.758h-8.358v8.358z"/></g></g></g></svg>