<svg width="201" height="42" xmlns="http://www.w3.org/2000/svg" xmlns:xlink="http://www.w3.org/1999/xlink" xmlns:svgjs="http://svgjs.com/svgjs" viewBox="389 3288 201 42"><svg width="184" height="42" xmlns="http://www.w3.org/2000/svg" xmlns:xlink="http://www.w3.org/1999/xlink" xmlns:svgjs="http://svgjs.com/svgjs" viewBox="0 0.668 184 40.664" fill="#fff" x="389" y="3288"><svg xmlns="http://www.w3.org/2000/svg" xmlns:xlink="http://www.w3.org/1999/xlink" width="184" height="42" viewBox="1 1 182.206 40.268"><path paint-order="stroke fill markers" fill-rule="evenodd" d="M15.3 9.811h-4.423V3.643L4.435 5.626V9.81H1v6.344h3.435v7.798c0 3.216.773 5.42 2.362 6.697 1.589 1.234 4.423 1.63 8.503 1.19v-5.992c-3.135.176-4.423-.132-4.423-1.895v-7.798H15.3V9.811zM40.378 23.47a13.13 13.13 0 0 0 .258-2.644c0-3.304-1.03-6.08-3.135-8.282-2.061-2.247-4.638-3.349-7.772-3.349-3.35 0-6.098 1.102-8.245 3.349-2.105 2.203-3.178 4.978-3.178 8.282 0 3.349 1.073 6.124 3.22 8.327 2.19 2.203 5.068 3.304 8.675 3.304 4.122 0 7.257-1.498 9.361-4.537l-5.153-3.04c-.987 1.101-2.362 1.674-4.122 1.674-2.706 0-4.423-1.014-5.153-3.084h15.244zm-15.373-4.935c.644-2.335 2.19-3.48 4.68-3.48 2.405 0 3.908 1.145 4.553 3.48h-9.233zm29.587 13.922c4.166 0 7.816-2.203 9.705-5.683l-5.625-3.304c-.73 1.63-2.147 2.467-4.166 2.467-2.79 0-4.852-2.115-4.852-5.11 0-2.996 2.061-5.111 4.852-5.111 2.019 0 3.393.837 4.166 2.467l5.625-3.348c-1.89-3.393-5.582-5.64-9.705-5.64-3.263 0-5.969 1.102-8.159 3.349-2.147 2.247-3.22 4.978-3.22 8.282 0 3.305 1.073 6.036 3.22 8.283 2.19 2.247 4.896 3.348 8.16 3.348zM79.671 9.194c-2.791 0-4.853.882-6.141 2.688V1h-6.441v30.84h6.441V19.812c0-2.996 1.546-4.538 3.994-4.538 2.19 0 3.736 1.41 3.736 4.01V31.84H87.7V18.314c0-2.864-.773-5.066-2.319-6.696-1.503-1.63-3.435-2.424-5.711-2.424zm28.213 2.864c-1.503-1.894-3.564-2.864-6.27-2.864-3.006 0-5.54 1.102-7.557 3.305-2.019 2.158-3.006 4.802-3.006 7.886 0 3.084.987 5.727 3.006 7.93 2.018 2.159 4.551 3.26 7.558 3.26 2.705 0 4.766-.969 6.27-2.864v2.027c0 3.04-1.804 4.714-4.853 4.714-2.276 0-3.908-.925-4.896-2.775l-5.497 3.26c1.933 3.568 5.325 5.33 10.178 5.33 3.135 0 5.84-.88 8.03-2.687 2.19-1.762 3.307-4.361 3.307-7.842V9.811h-6.27v2.247zm-8.932 12.027c-.988-.924-1.46-2.158-1.46-3.7 0-1.542.472-2.776 1.46-3.7.988-.926 2.233-1.41 3.736-1.41 1.503 0 2.748.484 3.736 1.41.988.924 1.46 2.158 1.46 3.7 0 1.542-.472 2.776-1.46 3.7-.988.926-2.233 1.41-3.736 1.41-1.503 0-2.748-.484-3.736-1.41zm40.924-.616a13.13 13.13 0 0 0 .258-2.644c0-3.304-1.03-6.08-3.135-8.282-2.061-2.247-4.638-3.349-7.772-3.349-3.35 0-6.098 1.102-8.245 3.349-2.105 2.203-3.178 4.978-3.178 8.282 0 3.349 1.073 6.124 3.22 8.327 2.19 2.203 5.068 3.304 8.675 3.304 4.123 0 7.257-1.498 9.361-4.537l-5.153-3.04c-.987 1.101-2.361 1.674-4.122 1.674-2.706 0-4.423-1.014-5.153-3.084h15.244zm-15.373-4.935c.644-2.335 2.19-3.48 4.68-3.48 2.405 0 3.908 1.145 4.553 3.48h-9.233zm34.655-6.652c-1.503-1.806-3.65-2.688-6.399-2.688-2.834 0-5.239 1.146-7.257 3.393s-3.006 4.978-3.006 8.238.988 6.036 3.006 8.283 4.423 3.348 7.257 3.348c2.748 0 4.896-.88 6.399-2.687v2.07h6.441V9.812h-6.441v2.07zm-8.804 12.864c-.944-.969-1.417-2.29-1.417-3.92s.473-2.953 1.417-3.922c.945-.969 2.19-1.454 3.693-1.454 1.503 0 2.749.485 3.694 1.454.944.97 1.417 2.291 1.417 3.921s-.473 2.952-1.417 3.921c-.945.97-2.19 1.454-3.694 1.454-1.503 0-2.748-.484-3.693-1.454zm26.41-14.935h-6.441V31.84h6.441v-9.957c0-1.983.687-3.393 2.018-4.186 1.375-.837 2.835-1.101 4.424-.837V9.37c-2.92 0-5.626 1.543-6.442 4.362v-3.92z"/></svg></svg><svg width="17" height="17" xmlns="http://www.w3.org/2000/svg" xmlns:xlink="http://www.w3.org/1999/xlink" xmlns:svgjs="http://svgjs.com/svgjs" fill="#19b5fe" x="573" y="3306"><svg xmlns="http://www.w3.org/2000/svg" width="17" height="17" viewBox="0.285 0.116 16.715 16.715"><path paint-order="stroke fill markers" fill-rule="evenodd" d="M17 .116H.285v16.715L17 .116z"/></svg></svg></svg>