<svg width="24" height="24" xmlns="http://www.w3.org/2000/svg" xmlns:xlink="http://www.w3.org/1999/xlink" xmlns:svgjs="http://svgjs.com/svgjs" viewBox="390 3450 24 24"><svg width="24" height="24" xmlns="http://www.w3.org/2000/svg" xmlns:xlink="http://www.w3.org/1999/xlink" xmlns:svgjs="http://svgjs.com/svgjs" fill="none" x="390" y="3450"><svg xmlns="http://www.w3.org/2000/svg" xmlns:xlink="http://www.w3.org/1999/xlink" width="24" height="24"><path paint-order="stroke fill markers" d="M0 0h24v24H0V0z"/></svg></svg><svg width="18" height="14" xmlns="http://www.w3.org/2000/svg" xmlns:xlink="http://www.w3.org/1999/xlink" xmlns:svgjs="http://svgjs.com/svgjs" fill="none" stroke-miterlimit="100" stroke-linecap="round" stroke="#19b5fe" stroke-width="1.5" x="393" y="3455"><svg xmlns="http://www.w3.org/2000/svg" xmlns:xlink="http://www.w3.org/1999/xlink" width="18" height="14"><path paint-order="stroke fill markers" d="M2 0h14c1.106 0 2 .894 2 2v10c0 1.106-.894 2-2 2H2c-1.106 0-2-.894-2-2V2C0 .894.894 0 2 0z"/></svg></svg><svg width="18" height="6" xmlns="http://www.w3.org/2000/svg" xmlns:xlink="http://www.w3.org/1999/xlink" xmlns:svgjs="http://svgjs.com/svgjs" viewBox="0 0 17.999 6" fill="none" stroke-miterlimit="100" stroke-linecap="round" stroke="#19b5fe" stroke-width="1.5" x="393" y="3457"><svg xmlns="http://www.w3.org/2000/svg" width="18" height="6"><path paint-order="stroke fill markers" d="M0 0l9 6 9-6H0"/></svg></svg></svg>