<svg width="17" height="18" xmlns="http://www.w3.org/2000/svg" xmlns:xlink="http://www.w3.org/1999/xlink" xmlns:svgjs="http://svgjs.com/svgjs" fill="none" stroke-miterlimit="100" stroke-linecap="round" stroke="#19b5fe" stroke-width="1.5"><svg xmlns="http://www.w3.org/2000/svg" width="17" height="18"><path paint-order="stroke fill markers" d="M6 16c-4.286 1.35-4.286-2.55-6-3l6 3m6 2v-3.5c0-1 .099-1.405-.5-2 2.79-.3 5.5-1.366 5.5-6.04a4.567 4.567 0 0 0-1.333-3.21 4.193 4.193 0 0 0-.08-3.227s-1.05-.3-3.476 1.267a12.331 12.331 0 0 0-6.222 0C3.462-.277 2.413.023 2.413.023a4.193 4.193 0 0 0-.08 3.227A4.566 4.566 0 0 0 1 6.486c0 4.64 2.709 5.68 5.5 6.014-.591.589-.56 1.183-.5 2V18h6"/></svg></svg>