<svg width="24" height="24" xmlns="http://www.w3.org/2000/svg" xmlns:xlink="http://www.w3.org/1999/xlink" xmlns:svgjs="http://svgjs.com/svgjs" viewBox="434 3551 24 24"><svg width="24" height="24" xmlns="http://www.w3.org/2000/svg" xmlns:xlink="http://www.w3.org/1999/xlink" xmlns:svgjs="http://svgjs.com/svgjs" fill="none" x="434" y="3551"><svg xmlns="http://www.w3.org/2000/svg" xmlns:xlink="http://www.w3.org/1999/xlink" width="24" height="24"><path paint-order="stroke fill markers" d="M0 0h24v24H0V0z"/></svg></svg><svg width="16" height="16" xmlns="http://www.w3.org/2000/svg" xmlns:xlink="http://www.w3.org/1999/xlink" xmlns:svgjs="http://svgjs.com/svgjs" fill="none" stroke-miterlimit="100" stroke-linecap="round" stroke="#19b5fe" stroke-width="1.5" x="438" y="3555"><svg xmlns="http://www.w3.org/2000/svg" xmlns:xlink="http://www.w3.org/1999/xlink" width="16" height="16"><path paint-order="stroke fill markers" d="M4 0h8c2.212 0 4 1.788 4 4v8c0 2.212-1.788 4-4 4H4c-2.212 0-4-1.788-4-4V4c0-2.212 1.788-4 4-4z"/></svg></svg><svg width="6" height="6" xmlns="http://www.w3.org/2000/svg" xmlns:xlink="http://www.w3.org/1999/xlink" xmlns:svgjs="http://svgjs.com/svgjs" fill="none" stroke-miterlimit="100" stroke-linecap="round" stroke="#19b5fe" stroke-width="1.5" x="443" y="3560"><svg xmlns="http://www.w3.org/2000/svg" xmlns:xlink="http://www.w3.org/1999/xlink" width="6" height="6"><path paint-order="stroke fill markers" d="M3 6C1.34 6 0 4.659 0 3c0-1.66 1.34-3 3-3 1.659 0 3 1.34 3 3 0 1.659-1.341 3-3 3z"/></svg></svg><svg width="0" height="1" xmlns="http://www.w3.org/2000/svg" xmlns:xlink="http://www.w3.org/1999/xlink" xmlns:svgjs="http://svgjs.com/svgjs" fill="none" stroke-miterlimit="100" stroke-linecap="round" stroke="#19b5fe" stroke-width="1.5" x="450" y="3558"><svg xmlns="http://www.w3.org/2000/svg" width="0" height="1"><path paint-order="stroke fill markers" d="M.5.5s0 0 0 0 0 0 0 0"/></svg></svg></svg>