<svg width="24" height="24" xmlns="http://www.w3.org/2000/svg" xmlns:xlink="http://www.w3.org/1999/xlink" xmlns:svgjs="http://svgjs.com/svgjs" viewBox="478 3551 24 24"><svg width="24" height="24" xmlns="http://www.w3.org/2000/svg" xmlns:xlink="http://www.w3.org/1999/xlink" xmlns:svgjs="http://svgjs.com/svgjs" fill="none" x="478" y="3551"><svg xmlns="http://www.w3.org/2000/svg" xmlns:xlink="http://www.w3.org/1999/xlink" width="24" height="24"><path paint-order="stroke fill markers" d="M0 0h24v24H0V0z"/></svg></svg><svg width="20" height="17" xmlns="http://www.w3.org/2000/svg" xmlns:xlink="http://www.w3.org/1999/xlink" xmlns:svgjs="http://svgjs.com/svgjs" viewBox="0 0.485 20 16.031" fill="none" stroke-miterlimit="100" stroke-linecap="round" stroke="#19b5fe" stroke-width="1.5" x="480" y="3554"><svg xmlns="http://www.w3.org/2000/svg" width="20" height="17" viewBox="0 0.899 20 16.03"><path paint-order="stroke fill markers" d="M20 1.01c-1 .49-1.98.689-3 .99-1.121-1.265-2.783-1.335-4.38-.737S9.977 3.323 10 5v1c-3.245.083-6.135-1.395-8-4 0 0-4.182 7.433 4 11-1.872 1.247-3.74 2.088-6 2 3.308 1.803 6.913 2.423 10.034 1.517 3.58-1.04 6.522-3.723 7.65-7.742.338-1.222.505-2.485.498-3.753-.002-.25 1.51-2.772 1.818-4.013 0 0 0 0 0 0z"/></svg></svg></svg>